<?xml version="1.0" encoding="UTF-8" standalone="no"?>
<!-- Created with Inkscape (http://www.inkscape.org/) -->

<svg
   width="240.77499mm"
   height="62.678112mm"
   viewBox="0 0 240.77499 62.678112"
   version="1.1"
   id="svg1"
   inkscape:export-filename="logo-fotografie-reisueber.svg"
   inkscape:export-xdpi="96"
   inkscape:export-ydpi="96"
   xmlns:inkscape="http://www.inkscape.org/namespaces/inkscape"
   xmlns:sodipodi="http://sodipodi.sourceforge.net/DTD/sodipodi-0.dtd"
   xmlns="http://www.w3.org/2000/svg"
   xmlns:svg="http://www.w3.org/2000/svg">
  <sodipodi:namedview
     id="namedview1"
     pagecolor="#ffffff"
     bordercolor="#000000"
     borderopacity="0.25"
     inkscape:showpageshadow="2"
     inkscape:pageopacity="0.0"
     inkscape:pagecheckerboard="0"
     inkscape:deskcolor="#d1d1d1"
     inkscape:document-units="mm" />
  <defs
     id="defs1" />
  <g
     inkscape:label="Ebene 1"
     inkscape:groupmode="layer"
     id="layer1"
     transform="translate(15.875007,-117.21042)">
    <path
       id="path18"
       d="m 128.46323,124.15813 c 0,0.3452 -0.0527,0.64905 -0.1571,0.91364 -0.10232,0.26458 -0.23771,0.48576 -0.40514,0.66146 -0.16847,0.17673 -0.36381,0.31212 -0.58705,0.40514 -0.22324,0.091 -0.45475,0.13643 -0.69453,0.13643 h -1.09967 v 3.34449 H 124.788 v -7.49101 h 1.7694 c 0.21704,0 0.43925,0.032 0.66559,0.0951 0.22531,0.0641 0.42995,0.1757 0.61185,0.33487 0.18397,0.15709 0.33486,0.3669 0.45062,0.62838 0.11782,0.25942 0.17777,0.58291 0.17777,0.97152 z m -0.73174,0.0124 c 0,-0.24804 -0.032,-0.46095 -0.0951,-0.64079 -0.0641,-0.1819 -0.15193,-0.32762 -0.26458,-0.43821 -0.11369,-0.11266 -0.24288,-0.19534 -0.38861,-0.24805 -0.14366,-0.0548 -0.29972,-0.0827 -0.46715,-0.0827 h -0.99632 v 2.88975 h 1.00459 c 0.33279,0 0.61701,-0.12093 0.85162,-0.36381 0.23668,-0.24494 0.35554,-0.61701 0.35554,-1.11621 z m 4.52892,5.44876 v -3.38584 c 0,-0.16226 -0.0103,-0.32659 -0.0289,-0.49196 -0.0165,-0.16536 -0.0537,-0.31626 -0.11162,-0.45475 -0.0558,-0.13746 -0.13849,-0.25011 -0.24805,-0.339 -0.10748,-0.0879 -0.25011,-0.13229 -0.42581,-0.13229 -0.17673,0 -0.33383,0.0486 -0.47129,0.1447 -0.13849,0.094 -0.25631,0.22324 -0.35553,0.3886 -0.0992,0.16537 -0.1757,0.35554 -0.22738,0.57051 -0.0527,0.21498 -0.0785,0.44028 -0.0785,0.67386 v 3.02617 h -0.69866 v -7.99951 h 0.69866 v 3.74551 h 0.0207 c 0.0909,-0.339 0.24908,-0.61702 0.47543,-0.83509 0.2253,-0.22014 0.50849,-0.33073 0.84749,-0.33073 0.28319,0 0.51056,0.061 0.68213,0.1819 0.17363,0.11886 0.30592,0.27595 0.39687,0.47129 0.093,0.19327 0.15503,0.41238 0.18604,0.65732 0.0331,0.24288 0.0496,0.4837 0.0496,0.72347 v 3.38584 z m 5.641,-2.61276 c 0,0.41652 -0.0434,0.79375 -0.12816,1.13275 -0.0827,0.33693 -0.20257,0.62839 -0.35967,0.87643 -0.15503,0.24805 -0.34623,0.44029 -0.57464,0.57465 -0.22944,0.13229 -0.48576,0.19843 -0.76894,0.19843 -0.28112,0 -0.53537,-0.0661 -0.76068,-0.19843 -0.22634,-0.13436 -0.41961,-0.3266 -0.57878,-0.57465 -0.15709,-0.24804 -0.27905,-0.5395 -0.3638,-0.87643 -0.0858,-0.339 -0.12816,-0.71623 -0.12816,-1.13275 0,-0.41547 0.0393,-0.79581 0.11989,-1.14101 0.0827,-0.34727 0.20051,-0.64286 0.35554,-0.88884 0.15709,-0.24804 0.34933,-0.43925 0.57877,-0.57464 0.22841,-0.13436 0.48783,-0.20257 0.77722,-0.20257 0.28318,0 0.5395,0.0682 0.76894,0.20257 0.22841,0.13539 0.41961,0.3266 0.57464,0.57464 0.1571,0.24598 0.27699,0.54157 0.35967,0.88884 0.0848,0.3452 0.12816,0.72554 0.12816,1.14101 z m -0.71934,-0.0124 c 0,-0.31109 -0.0238,-0.60048 -0.0703,-0.86816 -0.0444,-0.26665 -0.11368,-0.49713 -0.2067,-0.6904 -0.0909,-0.19534 -0.20567,-0.34933 -0.34313,-0.46302 -0.1385,-0.11266 -0.30179,-0.1695 -0.49196,-0.1695 -0.19017,0 -0.35554,0.0568 -0.4961,0.1695 -0.14056,0.11369 -0.25528,0.26768 -0.34313,0.46302 -0.0889,0.19327 -0.15606,0.42375 -0.20257,0.6904 -0.0475,0.26768 -0.0703,0.55707 -0.0703,0.86816 0,0.31213 0.0227,0.59841 0.0703,0.8599 0.0465,0.25941 0.11369,0.48782 0.20257,0.68626 0.0879,0.19844 0.20257,0.35347 0.34313,0.46302 0.14056,0.10749 0.30593,0.16123 0.4961,0.16123 0.19017,0 0.35553,-0.0537 0.49609,-0.16123 0.14263,-0.10955 0.25838,-0.26458 0.34727,-0.46302 0.0878,-0.19844 0.15399,-0.42685 0.19843,-0.68626 0.0465,-0.26149 0.0703,-0.54777 0.0703,-0.8599 z m 3.73518,2.62516 c -0.0775,0.0351 -0.1726,0.0672 -0.28526,0.0951 -0.11369,0.0269 -0.22944,0.0413 -0.34726,0.0413 -0.36691,0 -0.62736,-0.12712 -0.78135,-0.38034 -0.15193,-0.25321 -0.22738,-0.59221 -0.22738,-1.01699 v -3.41891 h -0.68626 v -0.57051 h 0.67799 V 122.922 h 0.68627 v 1.44694 h 0.93431 v 0.57051 H 139.954 v 3.29489 c 0,0.31729 0.0455,0.5488 0.13642,0.69453 0.093,0.14366 0.23151,0.21497 0.41341,0.21497 0.0631,0 0.13023,-0.008 0.20258,-0.0248 0.0713,-0.0186 0.13229,-0.0393 0.1819,-0.062 z m 4.28707,-2.61276 c 0,0.41652 -0.0434,0.79375 -0.12815,1.13275 -0.0827,0.33693 -0.20258,0.62839 -0.35967,0.87643 -0.15503,0.24805 -0.34623,0.44029 -0.57464,0.57465 -0.22945,0.13229 -0.48576,0.19843 -0.76895,0.19843 -0.28112,0 -0.53537,-0.0661 -0.76068,-0.19843 -0.22634,-0.13436 -0.41961,-0.3266 -0.57877,-0.57465 -0.1571,-0.24804 -0.27906,-0.5395 -0.36381,-0.87643 -0.0858,-0.339 -0.12815,-0.71623 -0.12815,-1.13275 0,-0.41547 0.0393,-0.79581 0.11989,-1.14101 0.0827,-0.34727 0.2005,-0.64286 0.35553,-0.88884 0.1571,-0.24804 0.34933,-0.43925 0.57878,-0.57464 0.22841,-0.13436 0.48782,-0.20257 0.77721,-0.20257 0.28319,0 0.5395,0.0682 0.76895,0.20257 0.22841,0.13539 0.41961,0.3266 0.57464,0.57464 0.15709,0.24598 0.27698,0.54157 0.35967,0.88884 0.0847,0.3452 0.12815,0.72554 0.12815,1.14101 z m -0.71933,-0.0124 c 0,-0.31109 -0.0238,-0.60048 -0.0703,-0.86816 -0.0444,-0.26665 -0.11369,-0.49713 -0.20671,-0.6904 -0.0909,-0.19534 -0.20567,-0.34933 -0.34313,-0.46302 -0.13849,-0.11266 -0.30179,-0.1695 -0.49196,-0.1695 -0.19017,0 -0.35553,0.0568 -0.49609,0.1695 -0.14056,0.11369 -0.25529,0.26768 -0.34314,0.46302 -0.0889,0.19327 -0.15606,0.42375 -0.20257,0.6904 -0.0475,0.26768 -0.0703,0.55707 -0.0703,0.86816 0,0.31213 0.0227,0.59841 0.0703,0.8599 0.0465,0.25941 0.11369,0.48782 0.20257,0.68626 0.0879,0.19844 0.20258,0.35347 0.34314,0.46302 0.14056,0.10749 0.30592,0.16123 0.49609,0.16123 0.19017,0 0.35553,-0.0537 0.49609,-0.16123 0.14263,-0.10955 0.25839,-0.26458 0.34727,-0.46302 0.0879,-0.19844 0.154,-0.42685 0.19844,-0.68626 0.0465,-0.26149 0.0703,-0.54777 0.0703,-0.8599 z m 5.33404,2.55075 c 0,0.37414 -0.031,0.72037 -0.0909,1.03766 -0.061,0.31626 -0.16123,0.59118 -0.30179,0.82269 -0.14056,0.23358 -0.33073,0.41755 -0.57051,0.54984 -0.23978,0.13436 -0.54054,0.20257 -0.90124,0.20257 -0.3452,0 -0.66766,-0.0806 -0.96738,-0.23978 -0.30076,-0.15709 -0.54157,-0.37 -0.72347,-0.63665 l 0.45475,-0.48783 c 0.14056,0.22014 0.31833,0.39688 0.5333,0.52917 0.21498,0.13436 0.45579,0.20257 0.72347,0.20257 0.23358,0 0.42685,-0.0496 0.57878,-0.14883 0.15089,-0.0992 0.26872,-0.23771 0.3514,-0.41341 0.0847,-0.17673 0.14573,-0.38447 0.1819,-0.62425 0.0351,-0.23978 0.0537,-0.50436 0.0537,-0.79375 v -0.86816 h -0.0207 c -0.0858,0.31729 -0.22737,0.58187 -0.42581,0.79375 -0.19637,0.21187 -0.47439,0.31832 -0.83509,0.31832 -0.26768,0 -0.50436,-0.0703 -0.71107,-0.21084 -0.20464,-0.14056 -0.3762,-0.33589 -0.51676,-0.58704 -0.14056,-0.25012 -0.24805,-0.54674 -0.32246,-0.88884 -0.0744,-0.34416 -0.11162,-0.72037 -0.11162,-1.12861 0,-0.40721 0.0351,-0.78135 0.10748,-1.12034 0.0713,-0.339 0.17467,-0.62942 0.31006,-0.8723 0.13746,-0.24495 0.31006,-0.43615 0.51677,-0.57464 0.20877,-0.13746 0.44855,-0.20671 0.71933,-0.20671 0.31626,0 0.58498,0.0982 0.80615,0.29352 0.22325,0.19327 0.37311,0.44855 0.45062,0.76481 h 0.0331 v -0.88883 h 0.678 z m -0.678,-2.55075 c 0,-0.30282 -0.0238,-0.58808 -0.0703,-0.85576 -0.0444,-0.26975 -0.11472,-0.5023 -0.21084,-0.69867 -0.0941,-0.19843 -0.2129,-0.35346 -0.35553,-0.46715 -0.14056,-0.11266 -0.30179,-0.1695 -0.48369,-0.1695 -0.19017,0 -0.3545,0.0568 -0.49196,0.1695 -0.13849,0.11369 -0.25425,0.26768 -0.34727,0.46302 -0.0909,0.19327 -0.15916,0.42375 -0.20257,0.6904 -0.0413,0.26768 -0.062,0.55707 -0.062,0.86816 0,0.30386 0.0207,0.58705 0.062,0.85163 0.0434,0.26458 0.11162,0.49609 0.20257,0.69453 0.093,0.19844 0.20878,0.3545 0.34727,0.46716 0.13746,0.11058 0.30179,0.16536 0.49196,0.16536 0.19017,0 0.35346,-0.0548 0.49196,-0.16536 0.13746,-0.11266 0.25321,-0.26562 0.34726,-0.45889 0.0961,-0.19534 0.1664,-0.42582 0.21084,-0.6904 0.0465,-0.26458 0.0703,-0.5519 0.0703,-0.86403 z m 3.04685,-1.48001 c 0.0992,-0.45992 0.25011,-0.79168 0.45475,-0.99632 0.2067,-0.20361 0.43925,-0.30593 0.69866,-0.30593 0.0579,0 0.10026,0.003 0.12816,0.008 l -0.0207,0.71934 c -0.0279,-0.005 -0.0537,-0.009 -0.0786,-0.0124 -0.0248,-0.005 -0.0558,-0.008 -0.0909,-0.008 -0.17673,0 -0.33383,0.061 -0.47129,0.18191 -0.13849,0.11885 -0.25218,0.27491 -0.34313,0.46715 -0.0909,0.19017 -0.16019,0.40721 -0.2067,0.64906 -0.0476,0.24288 -0.0703,0.48369 -0.0703,0.72347 v 2.6789 h -0.69867 v -3.9274 c 0,-0.11266 -0.002,-0.23358 -0.004,-0.36381 -0.003,-0.12919 -0.007,-0.25631 -0.0124,-0.38034 -0.003,-0.12402 -0.006,-0.23667 -0.008,-0.33899 -0.003,-0.10129 -0.008,-0.1819 -0.0165,-0.23978 h 0.67799 c 0.0134,0.13539 0.0227,0.30386 0.0289,0.50436 0.008,0.20154 0.0124,0.41548 0.0124,0.64079 z m 4.30051,4.10517 c -0.008,-0.0548 -0.0155,-0.12505 -0.0207,-0.21084 -0.003,-0.0847 -0.006,-0.17466 -0.008,-0.26871 -0.003,-0.0961 -0.004,-0.18811 -0.004,-0.27699 0,-0.0879 0,-0.1633 0,-0.22738 h -0.0207 c -0.17674,0.74725 -0.59945,1.12035 -1.26918,1.12035 -0.14883,0 -0.29765,-0.0289 -0.44648,-0.0868 -0.14883,-0.0548 -0.28422,-0.14572 -0.40514,-0.27285 -0.11886,-0.12609 -0.21705,-0.28629 -0.29353,-0.47956 -0.0775,-0.19533 -0.11575,-0.42994 -0.11575,-0.70279 0,-0.38241 0.0661,-0.6904 0.19844,-0.92191 0.13435,-0.23358 0.30385,-0.41755 0.50849,-0.54984 0.20671,-0.13436 0.43098,-0.22428 0.67386,-0.26872 0.24185,-0.0465 0.47336,-0.0703 0.69453,-0.0703 h 0.41341 v -0.27698 c 0,-0.45682 -0.0858,-0.79169 -0.25631,-1.00459 -0.16847,-0.21188 -0.39688,-0.31833 -0.68626,-0.31833 -0.19844,0 -0.38344,0.0537 -0.55397,0.16123 -0.16847,0.10542 -0.31213,0.23875 -0.42995,0.40101 l -0.37207,-0.43408 c 0.16226,-0.23358 0.3731,-0.41445 0.63252,-0.54157 0.26148,-0.12609 0.52296,-0.19017 0.78548,-0.19017 0.55087,0 0.94258,0.18087 1.17409,0.54157 0.23357,0.35863 0.3514,0.88367 0.3514,1.5751 v 2.18281 c 0,0.0692 0.001,0.1571 0.004,0.26458 0.002,0.10542 0.005,0.21291 0.008,0.32246 0.005,0.10749 0.0103,0.20981 0.0165,0.30593 0.008,0.0971 0.0165,0.1726 0.0248,0.22737 z m -0.0868,-2.6665 h -0.42168 c -0.17156,0 -0.3421,0.0165 -0.51263,0.0496 -0.16846,0.031 -0.31729,0.0899 -0.44648,0.17777 -0.13023,0.0889 -0.23771,0.21084 -0.32246,0.36793 -0.0858,0.15503 -0.12816,0.3545 -0.12816,0.59945 0,0.3669 0.0806,0.63149 0.24391,0.79375 0.16227,0.1633 0.339,0.24391 0.52917,0.24391 0.19844,0 0.36587,-0.0589 0.50436,-0.17776 0.13746,-0.12093 0.24598,-0.27286 0.3266,-0.45476 0.0827,-0.18397 0.14056,-0.3855 0.17363,-0.60358 0.0351,-0.22014 0.0537,-0.43201 0.0537,-0.63665 z m 5.77949,0.0537 c 0,0.40825 -0.0362,0.78135 -0.10748,1.12035 -0.0724,0.339 -0.17777,0.63252 -0.31833,0.88057 -0.14056,0.24597 -0.31316,0.43718 -0.51677,0.57464 -0.20463,0.13746 -0.44441,0.2067 -0.71933,0.2067 -0.31729,0 -0.58498,-0.0982 -0.80202,-0.29352 -0.21497,-0.19844 -0.3638,-0.45682 -0.44648,-0.77721 h -0.0124 v 3.43958 h -0.69865 v -7.78867 h 0.67799 v 0.94258 h 0.0207 c 0.0847,-0.32453 0.22531,-0.59118 0.42168,-0.79789 0.19844,-0.20877 0.47749,-0.31419 0.83922,-0.31419 0.25838,0 0.49196,0.0724 0.69867,0.21497 0.20877,0.14056 0.38447,0.33487 0.52503,0.58291 0.14263,0.24598 0.25218,0.53951 0.32659,0.88057 0.0744,0.3421 0.11163,0.7183 0.11163,1.12861 z m -0.71933,-0.0207 c 0,-0.30592 -0.0228,-0.59118 -0.0661,-0.85576 -0.0413,-0.26458 -0.10955,-0.49403 -0.20257,-0.6904 -0.0909,-0.19843 -0.20567,-0.35346 -0.34313,-0.46715 -0.1385,-0.11266 -0.30179,-0.1695 -0.49196,-0.1695 -0.19017,0 -0.3545,0.0568 -0.49196,0.1695 -0.13849,0.11369 -0.25528,0.26872 -0.3514,0.46715 -0.094,0.19637 -0.16433,0.42582 -0.21084,0.6904 -0.0444,0.26458 -0.0661,0.54984 -0.0661,0.85576 0,0.30903 0.0217,0.59842 0.0661,0.86817 0.0465,0.26768 0.11679,0.49919 0.21084,0.69453 0.0961,0.19327 0.21497,0.34623 0.35553,0.45888 0.14263,0.11059 0.30593,0.16537 0.48783,0.16537 0.19017,0 0.35346,-0.0548 0.49196,-0.16537 0.13746,-0.11265 0.25218,-0.26561 0.34313,-0.45888 0.093,-0.19534 0.16123,-0.42685 0.20257,-0.69453 0.0434,-0.26975 0.0661,-0.55914 0.0661,-0.86817 z m 4.67568,2.63343 v -3.38584 c 0,-0.16226 -0.0103,-0.32659 -0.0289,-0.49196 -0.0165,-0.16536 -0.0537,-0.31626 -0.11162,-0.45475 -0.0558,-0.13746 -0.13849,-0.25011 -0.24805,-0.339 -0.10748,-0.0879 -0.25011,-0.13229 -0.42581,-0.13229 -0.17673,0 -0.33383,0.0486 -0.47129,0.1447 -0.13849,0.094 -0.25631,0.22324 -0.35553,0.3886 -0.0992,0.16537 -0.1757,0.35554 -0.22738,0.57051 -0.0527,0.21498 -0.0786,0.44028 -0.0786,0.67386 v 3.02617 h -0.69867 v -7.99951 h 0.69866 v 3.74551 h 0.0207 c 0.0909,-0.339 0.24907,-0.61702 0.47542,-0.83509 0.2253,-0.22014 0.50849,-0.33073 0.84749,-0.33073 0.28319,0 0.51056,0.061 0.68213,0.1819 0.17363,0.11886 0.30592,0.27595 0.39687,0.47129 0.093,0.19327 0.15503,0.41238 0.18604,0.65732 0.0331,0.24288 0.0496,0.4837 0.0496,0.72347 v 3.38584 z m 3.11092,-6.85849 c 0,0.14883 -0.0455,0.27182 -0.13643,0.36793 -0.0909,0.0941 -0.2005,0.14056 -0.32659,0.14056 -0.13539,0 -0.24701,-0.0465 -0.33486,-0.14056 -0.0889,-0.0961 -0.1323,-0.2191 -0.1323,-0.36793 0,-0.14056 0.0434,-0.26045 0.1323,-0.35967 0.0879,-0.0992 0.19947,-0.14883 0.33486,-0.14883 0.13229,0 0.24185,0.0496 0.33073,0.14883 0.0879,0.0992 0.13229,0.21911 0.13229,0.35967 z m -0.81442,6.85849 v -5.25032 h 0.69867 v 5.25032 z m 2.72128,-2.47633 c 0,0.28939 0.0248,0.55707 0.0744,0.80202 0.0496,0.24288 0.12092,0.45372 0.21497,0.63252 0.0961,0.17983 0.21601,0.32039 0.35967,0.42168 0.14573,0.10232 0.31626,0.15296 0.51263,0.15296 0.25631,0 0.46095,-0.0765 0.61598,-0.23151 0.154,-0.154 0.27389,-0.34107 0.35967,-0.56224 l 0.52917,0.31006 c -0.12713,0.31729 -0.31626,0.58291 -0.56638,0.79788 -0.25114,0.21498 -0.57051,0.32246 -0.95911,0.32246 -0.58498,0 -1.03973,-0.24598 -1.36426,-0.74 -0.32556,-0.493 -0.48783,-1.17409 -0.48783,-2.04226 0,-0.41031 0.0424,-0.78755 0.12816,-1.13274 0.0847,-0.34727 0.20671,-0.64286 0.3638,-0.88884 0.15917,-0.24805 0.35347,-0.44028 0.58292,-0.57877 0.22841,-0.13746 0.48472,-0.20671 0.76894,-0.20671 0.30799,0 0.57051,0.0682 0.78548,0.20257 0.21704,0.13539 0.39274,0.3204 0.52503,0.55397 0.13436,0.23151 0.23152,0.50333 0.28939,0.81442 0.0599,0.30903 0.0909,0.63976 0.0909,0.99219 v 0.38034 z m 2.11667,-0.58291 c 0,-0.52917 -0.0816,-0.95291 -0.24391,-1.27331 -0.1633,-0.32246 -0.41651,-0.48369 -0.76068,-0.48369 -0.20671,0 -0.37931,0.062 -0.51676,0.18604 -0.1354,0.12402 -0.24702,0.27595 -0.33487,0.45475 -0.0889,0.17983 -0.15296,0.37207 -0.1943,0.57877 -0.0393,0.20464 -0.0579,0.38344 -0.0579,0.53744 z m 0,0"
       style="fill:#ffffff;fill-opacity:1;fill-rule:nonzero;stroke:none;stroke-width:0.352778"
       aria-label="Photographie" />
    <path
       id="path19"
       d="m 105.52406,175.73739 -0.40928,-1.68672 h -2.07532 l -0.42582,1.68672 h -0.67799 l 1.71565,-6.74274 h 0.90124 l 1.66605,6.74274 z m -1.418,-6.13916 h -0.0372 l -0.93431,3.91914 h 1.88516 z m 3.50469,1.418 v 3.04684 c 0,0.14677 0.008,0.29353 0.0248,0.44235 0.0165,0.14883 0.0506,0.28526 0.10335,0.40928 0.0548,0.12402 0.12919,0.22634 0.22324,0.30593 0.0961,0.0775 0.22738,0.11575 0.39274,0.11575 0.1571,0 0.29766,-0.0424 0.42168,-0.12816 0.12402,-0.0848 0.22841,-0.20257 0.31419,-0.3514 0.0847,-0.14882 0.1509,-0.31936 0.19844,-0.51263 0.0496,-0.19533 0.0744,-0.3979 0.0744,-0.60771 v -2.72025 h 0.62838 v 3.53054 c 0,0.10231 0.001,0.2129 0.004,0.33072 0.002,0.11576 0.005,0.23048 0.008,0.34314 0.002,0.11058 0.005,0.21394 0.008,0.31005 0.005,0.0941 0.0103,0.1633 0.0165,0.20671 h -0.60772 c -0.0145,-0.12092 -0.0248,-0.26665 -0.0331,-0.43822 -0.006,-0.17053 -0.008,-0.33176 -0.008,-0.48369 h -0.0165 c -0.0889,0.3173 -0.23461,0.57671 -0.43822,0.77722 -0.20464,0.19843 -0.45785,0.29765 -0.76068,0.29765 -0.25424,0 -0.45888,-0.0537 -0.61598,-0.16123 -0.15503,-0.10748 -0.27285,-0.24804 -0.35553,-0.42168 -0.0827,-0.1757 -0.13953,-0.37207 -0.1695,-0.58704 -0.0279,-0.21704 -0.0413,-0.43615 -0.0413,-0.65733 v -3.04684 z m 6.85643,4.65501 c 0,0.3359 -0.0279,0.64596 -0.0827,0.93018 -0.0527,0.28629 -0.14263,0.53433 -0.26872,0.74414 -0.12712,0.20877 -0.29972,0.37414 -0.51676,0.49609 -0.21498,0.12093 -0.48369,0.18191 -0.80616,0.18191 -0.31212,0 -0.60254,-0.0724 -0.87229,-0.21498 -0.27079,-0.14366 -0.48783,-0.33486 -0.65319,-0.57464 l 0.40927,-0.43822 c 0.12609,0.19534 0.28629,0.35347 0.47956,0.47543 0.19534,0.12092 0.41341,0.1819 0.65319,0.1819 0.20877,0 0.38137,-0.0455 0.51677,-0.13643 0.13745,-0.0889 0.24391,-0.2129 0.31832,-0.37207 0.0765,-0.15709 0.13023,-0.3452 0.16123,-0.56224 0.0331,-0.21497 0.0496,-0.45268 0.0496,-0.71107 v -0.78134 h -0.0165 c -0.0775,0.28732 -0.20568,0.52503 -0.38448,0.7152 -0.17673,0.19017 -0.42581,0.28525 -0.74827,0.28525 -0.24288,0 -0.45682,-0.0641 -0.64079,-0.19017 -0.1819,-0.12609 -0.33693,-0.30282 -0.46302,-0.52916 -0.12712,-0.22531 -0.22531,-0.49196 -0.29352,-0.79789 -0.0661,-0.30799 -0.0992,-0.64699 -0.0992,-1.01699 0,-0.36587 0.031,-0.70073 0.0951,-1.00459 0.063,-0.30592 0.15709,-0.56741 0.28111,-0.78548 0.12403,-0.22014 0.27906,-0.39274 0.46716,-0.51677 0.18707,-0.12402 0.40204,-0.18603 0.64492,-0.18603 0.28319,0 0.52503,0.0889 0.72347,0.26458 0.20051,0.17364 0.33693,0.40308 0.40928,0.68627 h 0.0248 v -0.79789 h 0.61185 z m -0.61185,-2.29443 c 0,-0.27285 -0.0207,-0.52917 -0.062,-0.76894 -0.0393,-0.24185 -0.10232,-0.45166 -0.19017,-0.62839 -0.0858,-0.1788 -0.19224,-0.31936 -0.31833,-0.42168 -0.12712,-0.10129 -0.27285,-0.15296 -0.43821,-0.15296 -0.17157,0 -0.31833,0.0517 -0.44235,0.15296 -0.12403,0.10232 -0.22738,0.23978 -0.31006,0.41341 -0.0827,0.17363 -0.14366,0.38241 -0.1819,0.62425 -0.0362,0.24288 -0.0538,0.50333 -0.0538,0.78135 0,0.27285 0.0176,0.52917 0.0538,0.76895 0.0382,0.23771 0.0992,0.44545 0.1819,0.62425 0.0827,0.17673 0.18603,0.31626 0.31006,0.41754 0.12402,0.0992 0.27078,0.14883 0.44235,0.14883 0.17363,0 0.32039,-0.0496 0.44235,-0.14883 0.12402,-0.10128 0.22841,-0.23978 0.31419,-0.41341 0.0879,-0.1757 0.1509,-0.3824 0.19017,-0.62012 0.0413,-0.23977 0.062,-0.49816 0.062,-0.77721 z m 2.42983,0.13229 c 0,0.26252 0.0217,0.5023 0.0661,0.71934 0.0434,0.21807 0.10852,0.40824 0.19431,0.57051 0.0847,0.16329 0.19223,0.29145 0.32246,0.38447 0.12919,0.0909 0.28318,0.13642 0.46302,0.13642 0.22841,0 0.41134,-0.0703 0.54984,-0.21084 0.14056,-0.14055 0.24908,-0.30799 0.32659,-0.50436 l 0.47542,0.27699 c -0.11575,0.28422 -0.28732,0.524 -0.51263,0.71933 -0.22324,0.19224 -0.51056,0.28939 -0.85989,0.28939 -0.5271,0 -0.93638,-0.22117 -1.22783,-0.66559 -0.29249,-0.44648 -0.43822,-1.05937 -0.43822,-1.83968 0,-0.36587 0.0382,-0.70487 0.11575,-1.01699 0.0765,-0.31109 0.18604,-0.57671 0.3266,-0.79789 0.14263,-0.22324 0.31833,-0.39687 0.52503,-0.5209 0.20671,-0.12402 0.43615,-0.18603 0.6904,-0.18603 0.27802,0 0.51366,0.061 0.70693,0.1819 0.19534,0.11886 0.35244,0.28319 0.47129,0.49196 0.12093,0.20981 0.20774,0.45475 0.26045,0.73587 0.0548,0.27906 0.0827,0.57671 0.0827,0.89297 v 0.34313 z m 1.90169,-0.52503 c 0,-0.47336 -0.0734,-0.85576 -0.21911,-1.14515 -0.14676,-0.28939 -0.37517,-0.43408 -0.68626,-0.43408 -0.1819,0 -0.33486,0.0568 -0.45889,0.1695 -0.12402,0.11058 -0.22634,0.24701 -0.30592,0.40927 -0.0806,0.1602 -0.1385,0.3328 -0.17363,0.51677 -0.0331,0.185 -0.0496,0.34623 -0.0496,0.48369 z m 4.18786,2.75332 v -3.04684 c 0,-0.14573 -0.008,-0.29352 -0.0248,-0.44235 -0.0145,-0.14883 -0.0486,-0.28526 -0.10335,-0.40928 -0.0527,-0.12402 -0.12816,-0.22531 -0.22738,-0.30592 -0.0992,-0.0796 -0.22737,-0.11989 -0.38447,-0.11989 -0.16019,0 -0.30179,0.0444 -0.42581,0.13229 -0.12403,0.0858 -0.22944,0.20257 -0.31419,0.3514 -0.0858,0.14883 -0.15193,0.32039 -0.19844,0.51263 -0.0475,0.19327 -0.0703,0.39481 -0.0703,0.60358 v 2.72438 h -0.62839 v -3.53053 c 0,-0.10129 -0.003,-0.21084 -0.008,-0.3266 -0.003,-0.11782 -0.006,-0.23254 -0.008,-0.34313 -0.003,-0.11265 -0.006,-0.21497 -0.008,-0.30592 -0.003,-0.093 -0.008,-0.16537 -0.0165,-0.21498 h 0.61185 c 0.0103,0.11886 0.0186,0.26458 0.0248,0.43822 0.008,0.17156 0.0124,0.33279 0.0124,0.48369 h 0.0207 c 0.0879,-0.31626 0.23254,-0.57464 0.43408,-0.77308 0.2036,-0.2005 0.45889,-0.30179 0.76481,-0.30179 0.25321,0 0.45682,0.0537 0.61185,0.16123 0.15709,0.10749 0.27698,0.25011 0.35967,0.42581 0.0827,0.17364 0.13746,0.37104 0.16536,0.59118 0.0269,0.21808 0.0413,0.43408 0.0413,0.64906 v 3.04684 z m 5.3144,-2.38125 c 0,0.37 -0.0331,0.709 -0.0992,1.01699 -0.0661,0.30593 -0.16433,0.57258 -0.29352,0.79789 -0.12712,0.22634 -0.28319,0.40307 -0.46715,0.52916 -0.1819,0.12609 -0.39481,0.19017 -0.63666,0.19017 -0.32246,0 -0.57361,-0.0941 -0.75241,-0.28112 -0.17673,-0.18707 -0.30385,-0.42684 -0.38033,-0.71933 h -0.0165 v 0.84749 h -0.61185 v -7.19749 h 0.62839 v 3.28248 h 0.0124 c 0.0744,-0.28318 0.20774,-0.51366 0.40101,-0.69039 0.19533,-0.1788 0.43511,-0.26872 0.71933,-0.26872 0.24185,0 0.45682,0.062 0.64493,0.18603 0.18706,0.12403 0.34416,0.29663 0.47128,0.51677 0.12609,0.21807 0.22118,0.47956 0.28526,0.78548 0.063,0.30386 0.0951,0.63872 0.0951,1.00459 z m -0.64905,0.0207 c 0,-0.27285 -0.0196,-0.52917 -0.0579,-0.76894 -0.0362,-0.24185 -0.0951,-0.45166 -0.17777,-0.62839 -0.0827,-0.1788 -0.18603,-0.31936 -0.31006,-0.42168 -0.12402,-0.10129 -0.27181,-0.15296 -0.44235,-0.15296 -0.16536,0 -0.31212,0.0517 -0.43821,0.15296 -0.12713,0.10232 -0.23358,0.24288 -0.31833,0.42168 -0.0858,0.17673 -0.14883,0.38654 -0.19017,0.62839 -0.0413,0.23977 -0.062,0.49609 -0.062,0.76894 0,0.27905 0.0207,0.53744 0.062,0.77721 0.0413,0.23772 0.10439,0.44442 0.19017,0.62012 0.0847,0.17363 0.19017,0.31213 0.31419,0.41341 0.12403,0.0992 0.27079,0.14883 0.44235,0.14883 0.17054,0 0.31833,-0.0496 0.44235,-0.14883 0.12403,-0.10128 0.22738,-0.23978 0.31006,-0.41341 0.0827,-0.1757 0.14159,-0.3824 0.17777,-0.62012 0.0382,-0.23977 0.0579,-0.49816 0.0579,-0.77721 z m 1.82624,2.36058 v -7.19749 h 0.62839 v 7.19749 z m 2.8298,-6.1681 c 0,0.13229 -0.0413,0.24185 -0.12402,0.3266 -0.0827,0.0858 -0.1819,0.12815 -0.29766,0.12815 -0.11885,0 -0.21807,-0.0424 -0.29765,-0.12815 -0.0806,-0.0848 -0.11989,-0.19431 -0.11989,-0.3266 0,-0.12609 0.0393,-0.23358 0.11989,-0.32246 0.0796,-0.0909 0.1788,-0.13643 0.29765,-0.13643 0.12093,0 0.22118,0.0455 0.30179,0.13643 0.0796,0.0889 0.11989,0.19637 0.11989,0.32246 z m -0.73587,6.1681 v -4.72116 h 0.62839 v 4.72116 z m 4.48241,-0.33486 c -0.25424,0.32556 -0.60254,0.48782 -1.04593,0.48782 -0.26768,0 -0.50333,-0.062 -0.70693,-0.18603 -0.20154,-0.12403 -0.37104,-0.29456 -0.5085,-0.51263 -0.13539,-0.22014 -0.23874,-0.48369 -0.31006,-0.78962 -0.0692,-0.30799 -0.10335,-0.65009 -0.10335,-1.02526 0,-0.37414 0.0341,-0.7152 0.10335,-1.02113 0.0713,-0.30799 0.1757,-0.57464 0.3142,-0.79788 0.14056,-0.22324 0.31212,-0.39377 0.51676,-0.51263 0.20361,-0.12092 0.43822,-0.1819 0.7028,-0.1819 0.24185,0 0.44855,0.0444 0.62012,0.13229 0.17053,0.0889 0.30696,0.19327 0.40928,0.31419 l -0.33487,0.45889 c -0.0744,-0.10749 -0.1695,-0.19224 -0.28525,-0.25631 -0.11369,-0.0661 -0.24598,-0.0992 -0.39688,-0.0992 -0.17363,0 -0.32246,0.0496 -0.44648,0.14882 -0.12196,0.0992 -0.22324,0.23565 -0.30593,0.40928 -0.0827,0.17363 -0.14469,0.38034 -0.18603,0.62012 -0.0413,0.23771 -0.062,0.49919 -0.062,0.78548 0,0.27905 0.0207,0.5364 0.062,0.77308 0.0413,0.23461 0.10335,0.43718 0.18603,0.60772 0.0827,0.17156 0.18811,0.30489 0.31833,0.401 0.12919,0.0941 0.28319,0.14056 0.46302,0.14056 0.1571,0 0.29352,-0.0331 0.40928,-0.0992 0.11782,-0.0661 0.21911,-0.15917 0.30179,-0.28112 z m 3.07372,0.33486 -1.61644,-2.38125 h -0.0207 v 2.38125 h -0.62839 v -7.19749 h 0.62839 v 4.55993 h 0.0207 l 1.52135,-2.0836 h 0.75241 l -1.69498,2.18695 1.80247,2.53421 z m 1.78387,-2.22829 c 0,0.26252 0.0217,0.5023 0.0661,0.71934 0.0434,0.21807 0.10851,0.40824 0.1943,0.57051 0.0848,0.16329 0.19223,0.29145 0.32246,0.38447 0.12919,0.0909 0.28318,0.13642 0.46302,0.13642 0.22841,0 0.41134,-0.0703 0.54984,-0.21084 0.14056,-0.14055 0.24908,-0.30799 0.32659,-0.50436 l 0.47542,0.27699 c -0.11575,0.28422 -0.28732,0.524 -0.51262,0.71933 -0.22325,0.19224 -0.51057,0.28939 -0.8599,0.28939 -0.5271,0 -0.93638,-0.22117 -1.22783,-0.66559 -0.29249,-0.44648 -0.43822,-1.05937 -0.43822,-1.83968 0,-0.36587 0.0382,-0.70487 0.11575,-1.01699 0.0765,-0.31109 0.18604,-0.57671 0.3266,-0.79789 0.14263,-0.22324 0.31833,-0.39687 0.52503,-0.5209 0.20671,-0.12402 0.43615,-0.18603 0.6904,-0.18603 0.27802,0 0.51366,0.061 0.70693,0.1819 0.19534,0.11886 0.35244,0.28319 0.47129,0.49196 0.12093,0.20981 0.20774,0.45475 0.26045,0.73587 0.0548,0.27906 0.0827,0.57671 0.0827,0.89297 v 0.34313 z m 1.90169,-0.52503 c 0,-0.47336 -0.0734,-0.85576 -0.21911,-1.14515 -0.14676,-0.28939 -0.37517,-0.43408 -0.68626,-0.43408 -0.1819,0 -0.33486,0.0568 -0.45889,0.1695 -0.12402,0.11058 -0.22634,0.24701 -0.30592,0.40927 -0.0806,0.1602 -0.13849,0.3328 -0.17363,0.51677 -0.0331,0.185 -0.0496,0.34623 -0.0496,0.48369 z m 5.1294,-4.01422 c -0.0941,-0.0331 -0.18603,-0.0496 -0.27698,-0.0496 -0.12713,0 -0.23358,0.032 -0.31833,0.0951 -0.0858,0.0641 -0.15503,0.14676 -0.20671,0.24805 -0.0496,0.10232 -0.0847,0.21807 -0.10335,0.34726 -0.0165,0.13023 -0.0248,0.26459 -0.0248,0.40515 v 1.00045 h 0.79789 v 0.51263 h -0.79789 v 4.20853 h -0.62012 v -4.20853 h -0.63665 v -0.51263 h 0.63665 v -1.00045 c 0,-0.48163 0.0961,-0.87334 0.28939,-1.17409 0.19224,-0.30283 0.49816,-0.45476 0.91777,-0.45476 0.14573,0 0.27699,0.0196 0.39274,0.0579 z m 1.2485,2.04638 v 3.04684 c 0,0.14677 0.008,0.29353 0.0248,0.44235 0.0165,0.14883 0.0506,0.28526 0.10335,0.40928 0.0548,0.12402 0.12919,0.22634 0.22324,0.30593 0.0961,0.0775 0.22738,0.11575 0.39274,0.11575 0.1571,0 0.29766,-0.0424 0.42168,-0.12816 0.12402,-0.0848 0.22841,-0.20257 0.31419,-0.3514 0.0847,-0.14882 0.1509,-0.31936 0.19844,-0.51263 0.0496,-0.19533 0.0744,-0.3979 0.0744,-0.60771 v -2.72025 h 0.62838 v 3.53054 c 0,0.10231 0.001,0.2129 0.004,0.33072 0.002,0.11576 0.005,0.23048 0.008,0.34314 0.002,0.11058 0.005,0.21394 0.008,0.31005 0.005,0.0941 0.0103,0.1633 0.0165,0.20671 h -0.60771 c -0.0145,-0.12092 -0.0248,-0.26665 -0.0331,-0.43822 -0.006,-0.17053 -0.008,-0.33176 -0.008,-0.48369 h -0.0165 c -0.0889,0.3173 -0.23461,0.57671 -0.43821,0.77722 -0.20464,0.19843 -0.45786,0.29765 -0.76068,0.29765 -0.25425,0 -0.45889,-0.0537 -0.61598,-0.16123 -0.15503,-0.10748 -0.27286,-0.24804 -0.35554,-0.42168 -0.0827,-0.1757 -0.13952,-0.37207 -0.1695,-0.58704 -0.0279,-0.21704 -0.0413,-0.43615 -0.0413,-0.65733 v -3.04684 z m 1.98025,-1.44694 c 0,0.12713 -0.0393,0.23048 -0.11576,0.31006 -0.0744,0.0775 -0.1695,0.11576 -0.28525,0.11576 -0.10749,0 -0.20154,-0.0382 -0.28112,-0.11576 -0.0775,-0.0796 -0.11576,-0.18293 -0.11576,-0.31006 0,-0.12092 0.0382,-0.22324 0.11576,-0.30592 0.0796,-0.0827 0.17363,-0.12403 0.28112,-0.12403 0.11575,0 0.21084,0.0413 0.28525,0.12403 0.0765,0.0827 0.11576,0.185 0.11576,0.30592 z m -1.36013,0 c 0,0.12713 -0.0403,0.23048 -0.11989,0.31006 -0.0806,0.0775 -0.17363,0.11576 -0.28111,0.11576 -0.12196,0 -0.21912,-0.0382 -0.29353,-0.11576 -0.0723,-0.0796 -0.10748,-0.18293 -0.10748,-0.31006 0,-0.12092 0.0351,-0.22324 0.10748,-0.30592 0.0744,-0.0827 0.17157,-0.12403 0.29353,-0.12403 0.10748,0 0.2005,0.0413 0.28111,0.12403 0.0796,0.0827 0.11989,0.185 0.11989,0.30592 z m 3.93361,2.4722 c 0.0878,-0.41031 0.22325,-0.70797 0.40514,-0.89297 0.18397,-0.18396 0.39481,-0.27698 0.63252,-0.27698 0.0496,0 0.0868,0.003 0.11163,0.008 l -0.0165,0.64905 c -0.0279,-0.005 -0.0527,-0.009 -0.0744,-0.0124 -0.0228,-0.005 -0.0486,-0.008 -0.0786,-0.008 -0.1602,0 -0.30179,0.0558 -0.42581,0.16536 -0.12402,0.10749 -0.22738,0.24702 -0.31006,0.41755 -0.0827,0.17157 -0.14469,0.3669 -0.18604,0.58704 -0.0393,0.21808 -0.0579,0.43409 -0.0579,0.64906 v 2.41019 h -0.62839 v -3.53053 c 0,-0.10129 -0.003,-0.21084 -0.008,-0.3266 -0.003,-0.11782 -0.006,-0.23254 -0.008,-0.34313 -0.003,-0.11265 -0.006,-0.21497 -0.008,-0.30592 -0.003,-0.093 -0.008,-0.16537 -0.0165,-0.21498 h 0.61185 c 0.0103,0.11886 0.0186,0.26872 0.0248,0.45062 0.008,0.1819 0.0124,0.37414 0.0124,0.57464 z m 6.06165,3.6959 v -0.84749 h -0.0165 c -0.0775,0.28732 -0.20567,0.52503 -0.38447,0.7152 -0.17673,0.19017 -0.42582,0.28525 -0.74828,0.28525 -0.24288,0 -0.45682,-0.0641 -0.64079,-0.19017 -0.18189,-0.12609 -0.33692,-0.30282 -0.46302,-0.52916 -0.12712,-0.22531 -0.22531,-0.49196 -0.29352,-0.79789 -0.0661,-0.30799 -0.0992,-0.64699 -0.0992,-1.01699 0,-0.36587 0.031,-0.70073 0.0951,-1.00459 0.063,-0.30592 0.1571,-0.56741 0.28112,-0.78548 0.12402,-0.22014 0.27905,-0.39274 0.46715,-0.51677 0.18707,-0.12402 0.40205,-0.18603 0.64492,-0.18603 0.28319,0 0.52297,0.0889 0.71934,0.26458 0.19844,0.17364 0.33176,0.40308 0.40101,0.68627 h 0.0207 v -3.27422 h 0.62839 v 7.19749 z m 0,-2.36058 c 0,-0.27802 -0.0207,-0.53847 -0.062,-0.78135 -0.0393,-0.24184 -0.10232,-0.45062 -0.19017,-0.62425 -0.0858,-0.17363 -0.19224,-0.31109 -0.31833,-0.41341 -0.12713,-0.10129 -0.27285,-0.15296 -0.43822,-0.15296 -0.17156,0 -0.31832,0.0517 -0.44235,0.15296 -0.12402,0.10232 -0.22737,0.23978 -0.31006,0.41341 -0.0827,0.17363 -0.14365,0.38241 -0.1819,0.62425 -0.0362,0.24288 -0.0537,0.50333 -0.0537,0.78135 0,0.27285 0.0176,0.52917 0.0537,0.76895 0.0383,0.23771 0.0992,0.44545 0.1819,0.62425 0.0827,0.17673 0.18604,0.31626 0.31006,0.41754 0.12403,0.0992 0.27079,0.14883 0.44235,0.14883 0.17363,0 0.3204,-0.0496 0.44235,-0.14883 0.12403,-0.10128 0.22841,-0.24081 0.3142,-0.41754 0.0879,-0.1788 0.15089,-0.38654 0.19017,-0.62425 0.0413,-0.23978 0.062,-0.4961 0.062,-0.76895 z m 2.81119,-3.80752 c 0,0.13229 -0.0413,0.24185 -0.12402,0.3266 -0.0827,0.0858 -0.1819,0.12815 -0.29765,0.12815 -0.11886,0 -0.21808,-0.0424 -0.29766,-0.12815 -0.0806,-0.0848 -0.11989,-0.19431 -0.11989,-0.3266 0,-0.12609 0.0393,-0.23358 0.11989,-0.32246 0.0796,-0.0909 0.1788,-0.13643 0.29766,-0.13643 0.12092,0 0.22117,0.0455 0.30179,0.13643 0.0796,0.0889 0.11988,0.19637 0.11988,0.32246 z m -0.73587,6.1681 v -4.72116 h 0.62839 v 4.72116 z m 2.44843,-2.22829 c 0,0.26252 0.0217,0.5023 0.0661,0.71934 0.0434,0.21807 0.10852,0.40824 0.1943,0.57051 0.0848,0.16329 0.19224,0.29145 0.32246,0.38447 0.12919,0.0909 0.28319,0.13642 0.46302,0.13642 0.22841,0 0.41135,-0.0703 0.54984,-0.21084 0.14056,-0.14055 0.24908,-0.30799 0.32659,-0.50436 l 0.47543,0.27699 c -0.11576,0.28422 -0.28732,0.524 -0.51263,0.71933 -0.22324,0.19224 -0.51056,0.28939 -0.8599,0.28939 -0.5271,0 -0.93637,-0.22117 -1.22783,-0.66559 -0.29249,-0.44648 -0.43821,-1.05937 -0.43821,-1.83968 0,-0.36587 0.0382,-0.70487 0.11575,-1.01699 0.0765,-0.31109 0.18604,-0.57671 0.32659,-0.79789 0.14263,-0.22324 0.31833,-0.39687 0.52504,-0.5209 0.2067,-0.12402 0.43615,-0.18603 0.6904,-0.18603 0.27801,0 0.51366,0.061 0.70693,0.1819 0.19533,0.11886 0.35243,0.28319 0.47129,0.49196 0.12092,0.20981 0.20774,0.45475 0.26045,0.73587 0.0548,0.27906 0.0827,0.57671 0.0827,0.89297 v 0.34313 z m 1.9017,-0.52503 c 0,-0.47336 -0.0734,-0.85576 -0.21911,-1.14515 -0.14676,-0.28939 -0.37517,-0.43408 -0.68627,-0.43408 -0.1819,0 -0.33486,0.0568 -0.45888,0.1695 -0.12403,0.11058 -0.22635,0.24701 -0.30593,0.40927 -0.0806,0.1602 -0.13849,0.3328 -0.17363,0.51677 -0.0331,0.185 -0.0496,0.34623 -0.0496,0.48369 z m 3.57187,2.75332 v -6.74274 h 2.71198 v 0.59118 h -2.06706 v 2.37298 h 1.93477 v 0.56224 h -1.93477 v 2.61689 h 2.16214 v 0.59945 z m 7.35769,0 h -0.74414 l -0.79789,-3.83646 h -0.0124 l -0.80614,3.83646 h -0.7152 l -0.96325,-4.72116 h 0.64079 l 0.72347,3.99769 h 0.008 l 0.82682,-3.99769 h 0.61186 l 0.83508,3.99769 h 0.0124 l 0.72347,-3.99769 H 177.53 Z m 2.67581,-6.1681 c 0,0.13229 -0.0413,0.24185 -0.12403,0.3266 -0.0827,0.0858 -0.1819,0.12815 -0.29766,0.12815 -0.11885,0 -0.21807,-0.0424 -0.29765,-0.12815 -0.0806,-0.0848 -0.11989,-0.19431 -0.11989,-0.3266 0,-0.12609 0.0393,-0.23358 0.11989,-0.32246 0.0796,-0.0909 0.1788,-0.13643 0.29765,-0.13643 0.12093,0 0.22118,0.0455 0.3018,0.13643 0.0796,0.0889 0.11989,0.19637 0.11989,0.32246 z m -0.73588,6.1681 v -4.72116 h 0.62839 v 4.72116 z m 5.06636,-0.0661 c 0,0.3359 -0.0279,0.64596 -0.0827,0.93018 -0.0527,0.28629 -0.14263,0.53433 -0.26872,0.74414 -0.12712,0.20877 -0.29972,0.37414 -0.51676,0.49609 -0.21498,0.12093 -0.48369,0.18191 -0.80616,0.18191 -0.31212,0 -0.60254,-0.0724 -0.87229,-0.21498 -0.27079,-0.14366 -0.48783,-0.33486 -0.6532,-0.57464 l 0.40928,-0.43822 c 0.12609,0.19534 0.28629,0.35347 0.47956,0.47543 0.19534,0.12092 0.41341,0.1819 0.65319,0.1819 0.20877,0 0.38137,-0.0455 0.51676,-0.13643 0.13746,-0.0889 0.24392,-0.2129 0.31833,-0.37207 0.0765,-0.15709 0.13023,-0.3452 0.16123,-0.56224 0.0331,-0.21497 0.0496,-0.45268 0.0496,-0.71107 v -0.78134 h -0.0165 c -0.0775,0.28732 -0.20568,0.52503 -0.38448,0.7152 -0.17673,0.19017 -0.42581,0.28525 -0.74827,0.28525 -0.24288,0 -0.45682,-0.0641 -0.64079,-0.19017 -0.1819,-0.12609 -0.33693,-0.30282 -0.46302,-0.52916 -0.12713,-0.22531 -0.22531,-0.49196 -0.29352,-0.79789 -0.0661,-0.30799 -0.0992,-0.64699 -0.0992,-1.01699 0,-0.36587 0.031,-0.70073 0.0951,-1.00459 0.0631,-0.30592 0.1571,-0.56741 0.28112,-0.78548 0.12403,-0.22014 0.27905,-0.39274 0.46716,-0.51677 0.18707,-0.12402 0.40204,-0.18603 0.64492,-0.18603 0.28319,0 0.52503,0.0889 0.72347,0.26458 0.2005,0.17364 0.33693,0.40308 0.40928,0.68627 h 0.0248 v -0.79789 h 0.61185 z m -0.61185,-2.29443 c 0,-0.27285 -0.0207,-0.52917 -0.062,-0.76894 -0.0393,-0.24185 -0.10232,-0.45166 -0.19017,-0.62839 -0.0858,-0.1788 -0.19223,-0.31936 -0.31833,-0.42168 -0.12712,-0.10129 -0.27285,-0.15296 -0.43821,-0.15296 -0.17157,0 -0.31833,0.0517 -0.44235,0.15296 -0.12403,0.10232 -0.22738,0.23978 -0.31006,0.41341 -0.0827,0.17363 -0.14366,0.38241 -0.1819,0.62425 -0.0362,0.24288 -0.0537,0.50333 -0.0537,0.78135 0,0.27285 0.0176,0.52917 0.0537,0.76895 0.0382,0.23771 0.0992,0.44545 0.1819,0.62425 0.0827,0.17673 0.18603,0.31626 0.31006,0.41754 0.12402,0.0992 0.27078,0.14883 0.44235,0.14883 0.17363,0 0.32039,-0.0496 0.44235,-0.14883 0.12402,-0.10128 0.22841,-0.23978 0.31419,-0.41341 0.0879,-0.1757 0.15089,-0.3824 0.19017,-0.62012 0.0413,-0.23977 0.062,-0.49816 0.062,-0.77721 z m 4.33979,2.36058 -1.61644,-2.38125 h -0.0207 v 2.38125 h -0.62839 v -7.19749 h 0.62839 v 4.55993 h 0.0207 l 1.52135,-2.0836 h 0.75241 l -1.69499,2.18695 1.80248,2.53421 z m 1.78387,-2.22829 c 0,0.26252 0.0217,0.5023 0.0661,0.71934 0.0434,0.21807 0.10853,0.40824 0.19431,0.57051 0.0848,0.16329 0.19223,0.29145 0.32246,0.38447 0.12919,0.0909 0.28319,0.13642 0.46302,0.13642 0.22841,0 0.41134,-0.0703 0.54984,-0.21084 0.14055,-0.14055 0.24908,-0.30799 0.32659,-0.50436 l 0.47542,0.27699 c -0.11575,0.28422 -0.28732,0.524 -0.51263,0.71933 -0.22324,0.19224 -0.51056,0.28939 -0.85989,0.28939 -0.5271,0 -0.93638,-0.22117 -1.22783,-0.66559 -0.29249,-0.44648 -0.43822,-1.05937 -0.43822,-1.83968 0,-0.36587 0.0382,-0.70487 0.11576,-1.01699 0.0765,-0.31109 0.18603,-0.57671 0.32659,-0.79789 0.14263,-0.22324 0.31833,-0.39687 0.52503,-0.5209 0.20671,-0.12402 0.43615,-0.18603 0.6904,-0.18603 0.27802,0 0.51367,0.061 0.70693,0.1819 0.19534,0.11886 0.35244,0.28319 0.47129,0.49196 0.12093,0.20981 0.20774,0.45475 0.26045,0.73587 0.0548,0.27906 0.0827,0.57671 0.0827,0.89297 v 0.34313 z m 1.90169,-0.52503 c 0,-0.47336 -0.0734,-0.85576 -0.21911,-1.14515 -0.14676,-0.28939 -0.37517,-0.43408 -0.68626,-0.43408 -0.1819,0 -0.33486,0.0568 -0.45889,0.1695 -0.12402,0.11058 -0.22634,0.24701 -0.30592,0.40927 -0.0806,0.1602 -0.13849,0.3328 -0.17364,0.51677 -0.0331,0.185 -0.0496,0.34623 -0.0496,0.48369 z m 2.50528,-3.41478 c 0,0.13229 -0.0413,0.24185 -0.12403,0.3266 -0.0827,0.0858 -0.1819,0.12815 -0.29766,0.12815 -0.11885,0 -0.21807,-0.0424 -0.29765,-0.12815 -0.0806,-0.0848 -0.11989,-0.19431 -0.11989,-0.3266 0,-0.12609 0.0393,-0.23358 0.11989,-0.32246 0.0796,-0.0909 0.1788,-0.13643 0.29765,-0.13643 0.12093,0 0.22118,0.0455 0.30179,0.13643 0.0796,0.0889 0.1199,0.19637 0.1199,0.32246 z m -0.73588,6.1681 v -4.72116 h 0.62839 v 4.72116 z m 3.62665,0 c -0.0692,0.0331 -0.15503,0.062 -0.25631,0.0868 -0.10232,0.0248 -0.20671,0.0372 -0.31419,0.0372 -0.33073,0 -0.56534,-0.11472 -0.7028,-0.34313 -0.1354,-0.22841 -0.20258,-0.5333 -0.20258,-0.91364 v -3.07578 h -0.62011 v -0.51263 h 0.61185 v -1.30638 h 0.62011 v 1.30638 h 0.83509 v 0.51263 h -0.83509 v 2.96003 c 0,0.28732 0.0393,0.49506 0.11989,0.62425 0.0827,0.13022 0.20671,0.1943 0.37207,0.1943 0.0579,0 0.11783,-0.006 0.1819,-0.0207 0.0631,-0.0165 0.11679,-0.0341 0.16123,-0.0537 z m 0,0"
       style="fill:#ffffff;fill-opacity:1;fill-rule:nonzero;stroke:none;stroke-width:0.352778"
       aria-label="Augenblicke für die Ewigkeit" />
    <path
       id="path24"
       d="m -3.8279935,139.90186 v -4.48522 c 0,-3.67453 2.98344154,-6.65797 6.6583275,-6.65797 h 13.920258 l 7.367763,-10.53995 c 0.462845,-0.66181 1.204383,-1.01388 1.956153,-1.00823 h 15.483416 c 0.01235,0 0.02434,0 0.03669,0 0.888294,0 1.662641,0.49177 2.065513,1.21708 l 7.221714,10.3311 h 13.956946 c 3.674886,0 6.657975,2.98344 6.657975,6.65797 v 4.22734 c -0.130528,-0.0515 -0.262114,-0.10196 -0.394758,-0.15135 -2.608439,-0.97402 -5.51815,-1.46085 -8.72878,-1.46085 -3.0099,0 -5.794022,0.46496 -8.352719,1.39453 -0.508,0.1845 -1.010356,0.37959 -1.506361,0.58526 -2.347031,-8.10119 -9.826272,-14.03103 -18.679583,-14.03103 -8.884002,0 -16.38441,5.97076 -18.703571,14.11534 -0.47625,-0.18803 -0.957439,-0.36688 -1.443919,-0.53692 -2.658534,-0.92957 -5.4430085,-1.39453 -8.3523667,-1.39453 -3.2106304,0 -6.09529416,0.50905 -8.6536385,1.52752 -0.17145,0.0681 -0.3411361,0.13794 -0.5090593,0.20991 z"
       style="fill:#74a651;fill-opacity:1;fill-rule:evenodd;stroke:none;stroke-width:0.352778" />
    <path
       id="path25"
       d="m 34.166171,165.26869 -0.113241,0.0967 c -2.145595,1.55328 -4.243564,3.14854 -6.294261,4.78578 -2.106789,1.68204 -4.289072,3.20957 -6.546497,4.58188 -2.257425,1.3723 -4.665486,2.50119 -7.22383,3.38631 -2.558697,0.88547 -5.3428194,1.32821 -8.3527193,1.32821 -3.2106304,0 -6.09529413,-0.48684 -8.6536384,-1.46086 -2.5583444,-0.97401 -4.7656748,-2.32409 -6.6219914,-4.05059 -1.8559639,-1.72649 -3.2857719,-3.76273 -4.2890719,-6.10905 -1.0033,-2.34633 -1.50495,-4.89162 -1.50495,-7.63658 0,-2.65607 0.476603,-5.17948 1.429808,-7.56991 0.952853,-2.39042 2.332567,-4.49333 4.1384362,-6.30837 1.8062221,-1.81504 3.9881525,-3.23144 6.5468496,-4.24956 2.55834434,-1.01847 5.4430081,-1.52753 8.6536385,-1.52753 2.9093582,0 5.6938327,0.46496 8.3523667,1.39453 0.310797,0.10866 0.619477,0.22084 0.926041,0.33691 -0.196144,1.11089 -0.29845,2.25389 -0.29845,3.42088 0,1.83233 0.252236,3.6061 0.7239,5.28885 -1.169811,-0.59973 -2.347736,-1.13595 -3.533422,-1.60938 -2.1071415,-0.84102 -4.2139303,-1.26153 -6.3210718,-1.26153 -1.906411,0 -3.6120915,0.33196 -5.11704143,0.99589 -1.50494997,0.66393 -2.75907487,1.5494 -3.76237477,2.65607 -1.0033,1.10666 -1.7808222,2.36855 -2.3325666,3.78495 -0.5517444,1.41675 -0.8279694,2.9217 -0.8279694,4.51555 0,3.36445 1.1038416,6.15351 3.3111721,8.36683 2.2073304,2.21333 5.3174191,3.32 9.3306189,3.32 2.0069527,0 4.0636471,-0.37607 6.170436,-1.12889 0.237419,-0.0847 0.474133,-0.17181 0.710141,-0.26176 -0.161572,0.0268 -0.323497,0.0522 -0.485775,0.0765 -1.989666,0.2988 -4.0594132,0.30586 -6.2085353,0.018 -3.7066359,-0.49636 -6.44172191,-1.83233 -8.2475913,-3.91795 -1.8781888,-2.16958 -2.6264304,-4.64961 -2.2528387,-7.43797 0.3795888,-2.83386 1.7533054,-5.11915 4.13138031,-6.85023 2.30963599,-1.68134 5.45218029,-2.31599 9.45021059,-1.78047 1.9868444,0.26634 3.9056024,0.86183 5.7555694,1.78928 0.262819,0.13159 0.524228,0.26635 0.783872,0.40464 0.578203,1.51553 1.339144,2.94146 2.256014,4.25027 -1.336675,-0.91617 -2.718858,-1.73179 -4.146197,-2.44722 -1.6002,-0.80222 -3.258961,-1.31904 -4.9769889,-1.5494 -3.2360304,-0.43321 -5.7996664,-0.0314 -7.6690357,1.32926 -1.80093048,1.31093 -2.8500915,3.03601 -3.1372526,5.18196 -0.2758722,2.06022 0.2843388,3.89043 1.67216655,5.49345 1.46049995,1.68663 3.71086925,2.68535 6.70842185,3.08681 1.9088805,0.25576 3.7472058,0.25294 5.5142688,-0.0123 1.806928,-0.27129 3.592336,-0.70591 5.356578,-1.30351 1.791405,-0.60678 3.505553,-1.28905 5.141736,-2.04682 0.508353,-0.23566 1.010355,-0.46884 1.506008,-0.70026 0.370064,-0.28928 0.732014,-0.57362 1.086556,-0.85302 2.693458,1.39629 5.751688,2.18546 8.99301,2.18546 0.08925,0 0.178858,-7.1e-4 0.268111,-0.002 z m 18.990733,-23.14574 c 0.286102,-0.11219 0.573969,-0.22084 0.8636,-0.32597 2.558697,-0.92957 5.342819,-1.39453 8.352719,-1.39453 3.21063,0 6.120341,0.48683 8.72878,1.46085 2.608791,0.97402 4.866216,2.3241 6.772627,4.05059 1.906411,1.7265 3.360914,3.78496 4.364214,6.17538 1.003653,2.39077 1.505303,4.95829 1.505303,7.7029 0,2.74461 -0.50165,5.31213 -1.505303,7.7029 -1.0033,2.39043 -2.407708,4.47111 -4.21393,6.2417 -1.80587,1.77095 -4.0132,3.16548 -6.621639,4.18359 -2.608792,1.01812 -5.518503,1.52718 -8.729133,1.52718 -2.909358,0 -5.668786,-0.42051 -8.277225,-1.26154 -2.608791,-0.84137 -5.066946,-1.94803 -7.374466,-3.32034 -2.307519,-1.37231 -4.539897,-2.89948 -6.697133,-4.58188 -1.709208,-1.33279 -3.3401,-2.66594 -4.891616,-3.99909 l 1.352197,-1.2259 c 2.358319,-0.34925 4.580466,-1.11972 6.587066,-2.23238 -0.02469,0.0219 -0.04904,0.0434 -0.07338,0.0653 0.379942,0.28928 0.763764,0.58067 1.151467,0.87453 0.555978,0.25965 1.120422,0.52211 1.693333,0.7874 1.636184,0.75777 3.349978,1.44004 5.141736,2.04682 1.763889,0.59761 3.54965,1.03223 5.356225,1.30351 1.767416,0.26529 3.605389,0.26811 5.514269,0.0123 2.997905,-0.40146 5.247922,-1.40017 6.708422,-3.0868 1.38818,-1.60303 1.948392,-3.43324 1.672519,-5.49346 -0.287514,-2.14595 -1.336675,-3.87103 -3.137252,-5.18195 -1.86937,-1.36067 -4.433006,-1.76248 -7.669036,-1.32927 -1.718028,0.23037 -3.377142,0.74718 -4.976989,1.5494 -1.667227,0.83573 -3.272719,1.80799 -4.816474,2.91747 -0.201789,0.14499 -0.40252,0.2914 -0.601134,0.43886 1.116542,-1.42875 2.039056,-3.01625 2.728031,-4.72228 0.521758,-0.29387 1.049514,-0.57433 1.582914,-0.84173 1.850319,-0.92745 3.769077,-1.52294 5.755921,-1.78929 3.998031,-0.53552 7.140222,0.0991 9.449858,1.78047 2.378428,1.73108 3.752145,4.01637 4.131733,6.85024 0.373239,2.78835 -0.37465,5.26838 -2.253191,7.43796 -1.805869,2.08563 -4.540603,3.42159 -8.247591,3.91795 -2.149122,0.28787 -4.218517,0.28081 -6.208536,-0.018 -0.367242,-0.055 -0.733778,-0.11642 -1.099256,-0.18415 0.464961,0.18521 0.932392,0.35878 1.402645,0.5207 2.056694,0.70838 4.238977,1.06222 6.546497,1.06222 3.812822,0 6.772627,-1.10667 8.879416,-3.32 2.107141,-2.21332 3.160536,-4.95829 3.160536,-8.23418 0,-3.36444 -1.053395,-6.2417 -3.160536,-8.63212 -2.106789,-2.39078 -5.21723,-3.58599 -9.330972,-3.58599 -2.106789,0 -4.188883,0.42051 -6.245577,1.26154 -1.241778,0.508 -2.465564,1.08867 -3.671006,1.74166 0.471311,-1.6824 0.723547,-3.45616 0.723547,-5.28814 0,-1.21708 -0.111125,-2.40841 -0.324202,-3.56446 z"
       style="fill:#74a651;fill-opacity:1;fill-rule:evenodd;stroke:none;stroke-width:0.352778" />
    <path
       id="path26"
       d="m 8.3954031,171.09059 c -0.8152694,-0.0243 -1.6425332,-0.0924 -2.4817915,-0.20497 -3.8332832,-0.51329 -6.65479968,-1.90958 -8.5224051,-4.06647 -1.9656777,-2.27048 -2.7474332,-4.86657 -2.3565555,-7.7851 0.3958167,-2.95663 1.8277416,-5.34211 4.30918036,-7.14833 2.38830544,-1.73849 5.63386084,-2.41441 9.76806344,-1.86091 2.0348222,0.2727 3.9997942,0.8823 5.8945632,1.83198 0.265995,0.13335 0.530225,0.26987 0.793045,0.40957 0.09454,0.0501 0.167216,0.13265 0.205316,0.23213 0.56515,1.48167 1.308806,2.87549 2.205214,4.15467 0.122414,0.17462 0.102306,0.41169 -0.04763,0.56303 -0.14993,0.15169 -0.386997,0.17427 -0.56268,0.0536 -1.320447,-0.90452 -2.685345,-1.71027 -4.094692,-2.41688 -1.555397,-0.77964 -3.167944,-1.2827 -4.837994,-1.50636 -3.100211,-0.41522 -5.5601303,-0.0547 -7.351183,1.24883 -1.69756654,1.23578 -2.6885193,2.86068 -2.9594526,4.88386 -0.2585861,1.93005 0.2681111,3.64419 1.56844993,5.14597 1.39911657,1.61572 3.56234987,2.55411 6.43360797,2.93864 1.8658416,0.25012 3.6628917,0.248 5.3904447,-0.0113 1.781174,-0.26741 3.541183,-0.69603 5.280377,-1.28517 1.776236,-0.60149 3.475567,-1.27812 5.097991,-2.02953 0.492478,-0.2279 0.978959,-0.45403 1.459089,-0.67804 0.355953,-0.27834 0.704497,-0.5521 1.045634,-0.82092 0.135819,-0.10724 0.322086,-0.12523 0.475897,-0.0455 2.63278,1.36489 5.622219,2.13607 8.790163,2.13607 0.08749,0 0.174978,-7.1e-4 0.262114,-0.002 0.185561,-0.002 0.353131,0.11148 0.418394,0.2854 0.06562,0.17392 0.01517,0.37006 -0.125941,0.49071 l -0.113242,0.0967 c -0.0088,0.008 -0.01834,0.0152 -0.02787,0.0222 -2.13995,1.54905 -4.232628,3.14007 -6.277681,4.77308 -2.121605,1.69404 -4.31941,3.2318 -6.59271,4.61398 -2.283884,1.38854 -4.720167,2.53083 -7.30885,3.42653 -2.602441,0.90064 -5.4345413,1.3522 -8.4966523,1.3522 -3.2688387,0 -6.20571357,-0.49812 -8.8106245,-1.48978 -2.6140832,-0.99519 -4.8686859,-2.37561 -6.7652192,-4.13985 -1.901825,-1.76883 -3.366558,-3.8548 -4.394553,-6.25863 -1.025877,-2.39959 -1.540227,-5.00274 -1.540227,-7.80979 0,-2.71322 0.487186,-5.29096 1.460852,-7.73324 0.975784,-2.44652 2.3876,-4.59846 4.235803,-6.45584 1.8474972,-1.85667 4.0791693,-3.30693 6.6960747,-4.34869 2.60702767,-1.03716 5.5456664,-1.55857 8.8169746,-1.55857 2.9601582,0 5.7929637,0.47343 8.4980637,1.41923 0.313972,0.11006 0.62618,0.2233 0.936272,0.34043 0.198261,0.0751 0.31503,0.28045 0.278342,0.4893 -0.191912,1.08585 -0.291748,2.20345 -0.291748,3.34433 0,1.79105 0.246592,3.52496 0.70732,5.16996 0.04763,0.16863 -0.0095,0.34925 -0.145345,0.46037 -0.135819,0.11078 -0.324202,0.13089 -0.48013,0.0508 -1.157464,-0.59301 -2.322689,-1.12395 -3.496028,-1.59208 -2.0524608,-0.8195 -4.1049218,-1.23014 -6.1573828,-1.23014 -1.839736,0 -3.4865026,0.3175 -4.93888866,0.9585 -1.44497774,0.63747 -2.65041934,1.4859 -3.61385534,2.54882 -0.9669639,1.0668 -1.7166166,2.28318 -2.2486055,3.64878 -0.5319888,1.36631 -0.7976305,2.81834 -0.7976305,4.35539 0,3.2385 1.0576277,5.92491 3.1824082,8.05533 2.1321888,2.13819 5.1420886,3.19052 9.0184106,3.19052 0.860425,0 1.7303749,-0.0709 2.6094971,-0.21307 z m 24.4704289,-5.40527 c -2.831041,-0.14428 -5.507566,-0.87735 -7.90963,-2.07927 -0.283633,0.22331 -0.572558,0.44979 -0.866069,0.67945 -0.02646,0.0208 -0.05503,0.0381 -0.08537,0.0522 -0.495653,0.23143 -0.998009,0.46496 -1.506714,0.70062 -1.650295,0.76447 -3.378906,1.45239 -5.185833,2.06446 -1.789289,0.60607 -3.600097,1.04669 -5.432425,1.32185 -1.80728,0.27129 -3.6865275,0.27482 -5.6380941,0.0134 -3.1245526,-0.4184 -5.4613525,-1.47743 -6.98358854,-3.23533 -1.47531656,-1.70426 -2.06939436,-3.65054 -1.77588326,-5.84058 0.3037417,-2.26872 1.4107583,-4.09399 3.31469985,-5.4797 1.94803875,-1.41817 4.61503865,-1.86161 7.98724125,-1.41005 1.7660058,0.23671 3.4713328,0.76799 5.1159828,1.59208 0.855486,0.42898 1.695097,0.89324 2.518481,1.39347 -0.447322,-0.79798 -0.841375,-1.62912 -1.177572,-2.48955 -0.209198,-0.10971 -0.418748,-0.21731 -0.629709,-0.32314 -1.805516,-0.90488 -3.677708,-1.48661 -5.6165745,-1.74625 -3.8618581,-0.51717 -6.9010385,0.0758 -9.13200506,1.69968 -2.27506374,1.65629 -3.59092484,3.84175 -3.95393314,6.55249 -0.3563055,2.65854 0.3584222,5.0225 2.1491221,7.09049 1.74413327,2.01436 4.3927887,3.29035 7.9727774,3.77013 2.106436,0.28187 4.1345552,0.27552 6.0847112,-0.0173 0.159808,-0.024 0.319616,-0.049 0.479072,-0.0755 0.223661,-0.037 0.438855,0.10125 0.497769,0.31997 0.05891,0.21872 -0.05715,0.44662 -0.268816,0.52705 -0.238831,0.091 -0.478367,0.17921 -0.718609,0.26529 -2.1575885,0.77047 -4.2640245,1.15429 -6.318955,1.15429 -4.1500775,0 -7.3603552,-1.16064 -9.6428273,-3.44946 -2.2902332,-2.29659 -3.4399359,-5.18795 -3.4399359,-8.67834 0,-1.65029 0.2864555,-3.20851 0.8579555,-4.67536 0.5718528,-1.46791 1.3775972,-2.7746 2.4168805,-3.92112 1.0431638,-1.15077 2.3463248,-2.07293 3.91124698,-2.76367 1.55751382,-0.68721 3.32210812,-1.03328 5.29484142,-1.03328 2.1614693,0 4.3229386,0.43003 6.4844078,1.29293 0.906639,0.36195 1.808692,0.76023 2.705806,1.19521 -0.327378,-1.43616 -0.500592,-2.93053 -0.500592,-4.46511 0,-1.06645 0.08361,-2.11349 0.244475,-3.13478 -0.191206,-0.0702 -0.383469,-0.13935 -0.576439,-0.20673 -2.612672,-0.91334 -5.3481108,-1.36984 -8.2070217,-1.36984 -3.1499526,0 -5.98064139,0.49707 -8.4906551,1.49614 -2.4997833,0.99483 -4.6326776,2.37772 -6.3972719,4.15113 -1.7635363,1.77236 -3.1107943,3.82623 -4.0414223,6.16056 -0.932744,2.33892 -1.398411,4.80801 -1.398411,7.40657 0,2.68252 0.48895,5.17031 1.46932,7.46301 0.978958,2.28882 2.373488,4.27567 4.1839438,5.95983 1.8157471,1.68875 3.9758054,3.00849 6.4787636,3.96134 2.51177761,0.95603 5.3442302,1.43193 8.4966523,1.43193 2.9580415,0 5.6941863,-0.43357 8.2084333,-1.30387 2.528358,-0.87489 4.908197,-1.99037 7.139163,-3.34645 2.24155,-1.36278 4.408311,-2.87937 6.500283,-4.54978 1.759303,-1.4044 3.553178,-2.77812 5.38233,-4.12115 z m 10.9347,-2.96686 c 0.291042,0.22155 0.5842,0.44415 0.879475,0.66781 0.541866,0.25294 1.091847,0.50871 1.649589,0.76694 1.622425,0.75142 3.321755,1.42805 5.097991,2.02953 1.739194,0.58914 3.499203,1.01776 5.280378,1.28517 1.727552,0.25929 3.524249,0.26141 5.390091,0.0113 2.871258,-0.38453 5.034844,-1.32292 6.433608,-2.93864 1.300339,-1.50177 1.827389,-3.21592 1.568803,-5.14597 -0.270934,-2.02318 -1.262239,-3.64807 -2.959806,-4.88385 -1.7907,-1.30352 -4.250972,-1.66406 -7.35083,-1.24884 -1.670403,0.22366 -3.282597,0.72673 -4.837994,1.50636 -1.646414,0.8255 -3.23215,1.78612 -4.756503,2.88149 -0.200377,0.14394 -0.398991,0.28857 -0.595841,0.43498 -0.177447,0.13123 -0.424392,0.11148 -0.578556,-0.0466 -0.154164,-0.15769 -0.167569,-0.40534 -0.03175,-0.57926 1.091142,-1.39665 1.993195,-2.94816 2.666647,-4.61574 0.0374,-0.0931 0.105481,-0.1704 0.192617,-0.21943 0.527755,-0.29704 1.061861,-0.58103 1.601611,-0.85161 1.894769,-0.94968 3.860094,-1.55928 5.894916,-1.83197 4.134203,-0.55351 7.379758,0.12241 9.768064,1.8609 2.481438,1.80622 3.913011,4.19171 4.30918,7.14834 0.390878,2.91853 -0.390878,5.51462 -2.356908,7.7851 -1.867606,2.15688 -4.688769,3.55317 -8.522405,4.06646 -0.979311,0.13124 -1.942747,0.20215 -2.889956,0.21344 1.123597,0.19296 2.281061,0.28927 3.472745,0.28927 3.673122,0 6.530269,-1.05057 8.560152,-3.18311 2.028825,-2.13113 3.038828,-4.77555 3.038828,-7.93009 0,-3.25014 -1.014942,-6.03109 -3.05047,-8.34073 -2.030589,-2.30399 -5.035549,-3.4364 -9.000066,-3.4364 -2.050697,0 -4.0767,0.41028 -6.078714,1.22872 -1.227313,0.502 -2.436636,1.07597 -3.627966,1.7212 -0.155575,0.0847 -0.346781,0.0674 -0.485069,-0.043 -0.138289,-0.11042 -0.197203,-0.29315 -0.149578,-0.46355 0.46108,-1.64465 0.707319,-3.37855 0.707319,-5.16925 0,-1.18992 -0.108655,-2.35444 -0.316794,-3.48438 -0.03845,-0.20779 0.0762,-0.41346 0.272697,-0.49037 0.289278,-0.11359 0.580672,-0.22366 0.874183,-0.3302 2.604558,-0.9465 5.438775,-1.42098 8.503003,-1.42098 3.267427,0 6.228291,0.49741 8.883296,1.48872 2.663472,0.99448 4.967817,2.37419 6.914092,4.13667 1.954389,1.77024 3.446286,3.88091 4.474986,6.33201 1.025525,2.44334 1.539522,5.06765 1.539522,7.87329 0,2.80564 -0.513997,5.42996 -1.539522,7.8733 -1.026584,2.44616 -2.464153,4.57447 -4.31165,6.38633 -1.846792,1.81081 -4.102806,3.23815 -6.770511,4.2792 -2.656769,1.03716 -5.619397,1.55751 -8.889294,1.55751 -2.956983,0 -5.761214,-0.42792 -8.412691,-1.28305 -2.640542,-0.85126 -5.128683,-1.97168 -7.464425,-3.36056 -2.323394,-1.38183 -4.570941,-2.91959 -6.742994,-4.61328 -1.714853,-1.33738 -3.350683,-2.67476 -4.907844,-4.01214 -0.09596,-0.0825 -0.152047,-0.20214 -0.153458,-0.32879 -0.0018,-0.12629 0.0508,-0.24765 0.144638,-0.33267 l 1.352198,-1.2259 c 0.06456,-0.0589 0.145344,-0.097 0.231775,-0.10971 2.305049,-0.34114 4.476749,-1.09432 6.437841,-2.18158 0.196497,-0.10901 0.443794,-0.0526 0.573617,0.13123 0.03245,0.0455 0.05468,0.0952 0.06773,0.1464 z m 7.273925,-6.73911 c 1.129594,-0.73554 2.290233,-1.40194 3.482269,-1.99954 1.64465,-0.82409 3.349977,-1.35538 5.115983,-1.59209 3.37185,-0.45156 6.039202,-0.008 7.986888,1.41005 1.903942,1.38571 3.010959,3.21099 3.315053,5.4797 0.293158,2.19004 -0.300567,4.13632 -1.776236,5.84059 -1.521883,1.75789 -3.858683,2.81693 -6.983236,3.23532 -1.951566,0.26141 -3.831166,0.25788 -5.638094,-0.0134 -1.83268,-0.27517 -3.643489,-0.71579 -5.432425,-1.32186 -1.806927,-0.61207 -3.535538,-1.29999 -5.185833,-2.06446 -0.572911,-0.26564 -1.138061,-0.5281 -1.694391,-0.7881 -0.02822,-0.013 -0.05503,-0.0293 -0.07973,-0.048 -0.3175,-0.24059 -0.632531,-0.47978 -0.945092,-0.71755 -1.921933,1.01671 -4.028722,1.72932 -6.256161,2.07469 0,0 -0.882649,0.80045 -0.883002,0.80045 1.43263,1.22026 2.93123,2.44052 4.496152,3.66113 2.14242,1.67075 4.359275,3.18734 6.651272,4.55048 2.279297,1.35537 4.707467,2.44863 7.284508,3.27942 2.565753,0.82726 5.280025,1.24037 8.141758,1.24037 3.151717,0 6.008158,-0.49777 8.568619,-1.49719 2.549878,-0.99519 4.708172,-2.35656 6.473472,-4.08729 1.764242,-1.73002 3.136194,-3.76272 4.116211,-6.09776 0.981075,-2.33751 1.47073,-4.84822 1.47073,-7.53216 0,-2.68393 -0.489655,-5.19465 -1.47073,-7.53216 -0.9779,-2.33009 -2.395714,-4.33634 -4.253794,-6.01944 -1.866195,-1.69016 -4.077053,-3.01061 -6.630811,-3.96417 -2.562225,-0.95673 -5.420783,-1.43298 -8.574616,-1.43298 -2.955572,0 -5.6896,0.45508 -8.202083,1.36807 -0.173214,0.0628 -0.345722,0.127 -0.517525,0.19227 0.176741,1.06856 0.268464,2.16535 0.268464,3.28365 0,1.52471 -0.170745,3.01025 -0.494595,4.43795 0.934156,-0.47555 1.878895,-0.90876 2.834217,-1.29964 2.111727,-0.86324 4.249208,-1.29434 6.412441,-1.29434 4.262967,0 7.478536,1.25801 9.661877,3.73521 2.178403,2.47156 3.270603,5.44548 3.270603,8.92387 0,3.3976 -1.096786,6.2424 -3.282244,8.53828 -2.184047,2.29446 -5.246511,3.45687 -9.19868,3.45687 -2.35832,0 -4.588228,-0.36266 -6.690078,-1.08621 -0.476955,-0.16439 -0.950736,-0.34007 -1.4224,-0.52775 -0.210608,-0.084 -0.323497,-0.31397 -0.26035,-0.53199 0.0628,-0.21802 0.280811,-0.35278 0.503767,-0.3115 0.360892,0.0667 0.722489,0.12735 1.084791,0.18168 1.950156,0.2928 3.978275,0.29915 6.084711,0.0173 3.579989,-0.47977 6.228292,-1.75577 7.972425,-3.77013 1.791053,-2.06798 2.505428,-4.43195 2.149475,-7.09048 -0.363009,-2.71075 -1.67887,-4.8962 -3.953933,-6.5525 -2.230967,-1.62383 -5.270147,-2.21685 -9.132005,-1.69968 -1.938867,0.25965 -3.811411,0.84138 -5.616928,1.74625 -0.481542,0.24165 -0.958497,0.49389 -1.430514,0.75706 -0.381705,0.92393 -0.830439,1.81328 -1.340202,2.66171 z"
       style="fill:#ffffff;fill-opacity:1;fill-rule:evenodd;stroke:none;stroke-width:0.352778" />
    <path
       id="path27"
       d="m 8.041567,125.12682 v 2.44616 c 0,0.14499 -0.1178277,0.26282 -0.2628194,0.26282 H 7.2696893 c -0.1449917,0 -0.2624667,-0.11783 -0.2624667,-0.26282 v -2.44616 c 0,-0.14499 0.117475,-0.26282 0.2624667,-0.26282 h 0.5090583 c 0.1449917,0 0.2628194,0.11783 0.2628194,0.26282 z"
       style="fill:#426c32;fill-opacity:1;fill-rule:evenodd;stroke:none;stroke-width:0.352778" />
    <path
       id="path28"
       d="m 16.300447,125.12294 v 2.45427 c 0,0.14252 -0.115711,0.25859 -0.258586,0.25859 h -0.517172 c -0.142875,0 -0.258586,-0.11607 -0.258586,-0.25859 v -2.45427 c 0,-0.14288 0.115711,-0.25894 0.258586,-0.25894 h 0.517172 c 0.142875,0 0.258586,0.11606 0.258586,0.25894 z"
       style="fill:#426c32;fill-opacity:1;fill-rule:evenodd;stroke:none;stroke-width:0.352778" />
    <path
       id="path29"
       d="m 9.7694725,125.21819 v 2.26377 c 0,0.19509 -0.1583972,0.35384 -0.3538361,0.35384 H 8.7079642 c -0.1954389,0 -0.3538361,-0.15875 -0.3538361,-0.35384 v -2.26377 c 0,-0.19544 0.1583972,-0.35419 0.3538361,-0.35419 h 0.7076722 c 0.1954389,0 0.3538361,0.15875 0.3538361,0.35419 z"
       style="fill:#426c32;fill-opacity:1;fill-rule:evenodd;stroke:none;stroke-width:0.352778" />
    <path
       id="path30"
       d="m 11.497731,125.21819 v 2.26377 c 0,0.19509 -0.15875,0.35384 -0.354189,0.35384 H 10.43587 c -0.195439,0 -0.353836,-0.15875 -0.353836,-0.35384 v -2.26377 c 0,-0.19544 0.158397,-0.35419 0.353836,-0.35419 h 0.707672 c 0.195439,0 0.354189,0.15875 0.354189,0.35419 z"
       style="fill:#426c32;fill-opacity:1;fill-rule:evenodd;stroke:none;stroke-width:0.352778" />
    <path
       id="path31"
       d="m 13.225636,125.21819 v 2.26377 c 0,0.19509 -0.15875,0.35384 -0.353836,0.35384 h -0.708025 c -0.195086,0 -0.353836,-0.15875 -0.353836,-0.35384 v -2.26377 c 0,-0.19544 0.15875,-0.35419 0.353836,-0.35419 H 12.8718 c 0.195086,0 0.353836,0.15875 0.353836,0.35419 z"
       style="fill:#426c32;fill-opacity:1;fill-rule:evenodd;stroke:none;stroke-width:0.352778" />
    <path
       id="path32"
       d="m 14.953542,125.21819 v 2.26377 c 0,0.19509 -0.158398,0.35384 -0.353836,0.35384 h -0.707673 c -0.195438,0 -0.354188,-0.15875 -0.354188,-0.35384 v -2.26377 c 0,-0.19544 0.15875,-0.35419 0.354188,-0.35419 h 0.707673 c 0.195438,0 0.353836,0.15875 0.353836,0.35419 z"
       style="fill:#426c32;fill-opacity:1;fill-rule:evenodd;stroke:none;stroke-width:0.352778" />
    <path
       id="path33"
       d="M -0.59161031,126.4201 H 5.4578227 c 0.1890889,0 0.3429,0.15346 0.3429,0.3429 v 0.7299 c 0,0.18909 -0.1538111,0.3429 -0.3429,0.3429 h -6.04943301 c -0.18908888,0 -0.34254721,-0.15381 -0.34254721,-0.3429 v -0.7299 c 0,-0.18944 0.15345833,-0.3429 0.34254721,-0.3429 z"
       style="fill:#426c32;fill-opacity:1;fill-rule:evenodd;stroke:none;stroke-width:0.352778" />
    <path
       id="path34"
       d="m 52.165598,124.96842 h 8.543572 c 0.395817,0 0.716844,0.32138 0.716844,0.71685 v 1.43368 c 0,0.39547 -0.321027,0.71685 -0.716844,0.71685 h -8.543572 c -0.395464,0 -0.716844,-0.32138 -0.716844,-0.71685 v -1.43368 c 0,-0.39547 0.32138,-0.71685 0.716844,-0.71685 z"
       style="fill:#426c32;fill-opacity:1;fill-rule:evenodd;stroke:none;stroke-width:0.352778" />
    <path
       id="path35"
       d="m 33.531171,128.86344 c 9.413875,-0.16757 17.192977,7.33954 17.360194,16.75377 0.167569,9.41387 -7.339541,17.19262 -16.753416,17.36019 -9.414227,0.16722 -17.192977,-7.33954 -17.360546,-16.75377 -0.167217,-9.41387 7.339894,-17.19262 16.753768,-17.36019 z m 0.0441,2.46909 c -8.051447,0.14323 -14.472003,6.79591 -14.328775,14.84736 0.143228,8.05109 6.796264,14.47165 14.847358,14.32842 8.051447,-0.14323 14.471649,-6.79591 14.328421,-14.84736 -0.142875,-8.05109 -6.79591,-14.47165 -14.847004,-14.32842 z"
       style="fill:#426c32;fill-opacity:1;fill-rule:evenodd;stroke:none;stroke-width:0.352778" />
    <path
       id="path36"
       d="m 33.632771,134.58232 c 6.257925,-0.11148 11.428589,4.87892 11.540066,11.13649 0.111125,6.25757 -4.878916,11.42859 -11.136841,11.53971 -6.257572,0.11148 -11.428235,-4.87891 -11.539713,-11.13649 -0.111125,-6.25757 4.878916,-11.42858 11.136488,-11.53971 z"
       style="fill:#d4cecd;fill-opacity:1;fill-rule:evenodd;stroke:#426c32;stroke-width:1.76389;stroke-linecap:butt;stroke-linejoin:miter;stroke-miterlimit:10;stroke-dasharray:none;stroke-opacity:1" />
    <path
       id="path37"
       d="m 29.71341,139.68455 c 1.927931,-0.0342 3.521075,1.50318 3.555647,3.43111 0.03422,1.92828 -1.503538,3.52143 -3.431469,3.55565 -1.92793,0.0342 -3.521075,-1.50319 -3.555647,-3.43112 -0.03422,-1.92828 1.503539,-3.52143 3.431469,-3.55564 z"
       style="fill:#ffffff;fill-opacity:1;fill-rule:evenodd;stroke:none;stroke-width:0.352778" />
    <path
       id="path40"
       d="m 80.60775,151.81121 c 2.670639,2.95589 5.622396,6.64766 9.367904,11.75742 0.343131,0.5085 0.624251,0.339 0.909505,-0.11575 0.740006,-1.13275 0.51263,-3.06338 -0.285254,-4.59714 -1.190625,-2.38538 -3.232878,-5.10976 -5.390885,-7.7804 6.30039,-1.47588 12.435416,-5.05602 15.49879,-9.14466 2.15801,-2.89388 2.9559,-6.35827 1.76114,-9.76478 -1.36013,-3.86126 -3.861265,-4.71289 -6.755145,-4.60127 -3.80752,0.1695 -8.065658,2.50114 -12.836426,3.06751 -0.735872,0.11162 -0.905371,0.39688 -0.624251,0.96325 0.682129,1.25264 1.703255,2.10427 3.633887,2.27377 -4.994011,7.83414 -10.335286,18.62418 -11.753288,23.79182 -0.851627,3.06752 -0.285254,4.77077 0.512631,5.6224 0.396875,0.39687 0.677994,0.34313 0.905371,-0.22738 1.876887,-4.65501 3.522265,-8.23515 5.056021,-11.24479 z m 8.743652,-18.28519 c 3.749642,-1.02112 9.425781,-3.97288 10.678418,-0.79375 1.64538,4.03077 -4.770768,12.3238 -17.321939,15.10606 1.533756,-2.78226 2.951757,-5.16765 4.485514,-7.89203 1.533756,-2.84013 2.158007,-4.82864 2.158007,-6.42028 z m 13.460678,19.64945 c 3.97288,3.23701 7.7804,1.76113 10.56266,-1.64538 2.38539,-2.89801 2.836,-6.3624 1.81488,-7.72252 -0.90951,-1.24851 -1.93063,-2.10427 -3.34864,-2.9559 -2.84013,-1.64537 -8.63203,1.30638 -12.32379,8.63204 -3.691764,7.32565 -1.190625,14.42392 6.01927,14.3123 4.37389,-0.0579 8.74365,-2.67064 11.12904,-6.13503 1.02526,-1.47588 1.19476,-3.06338 0.96738,-3.51813 -0.22738,-0.51263 -0.68213,-0.51263 -0.96738,-0.0579 -2.43913,3.74551 -6.58565,8.2889 -11.29854,8.06153 -3.00963,-0.1695 -4.37389,-3.74551 -2.55488,-8.97103 z m 0.5085,-1.2485 c 0.11575,-0.28526 0.28525,-0.62425 0.45475,-0.96739 2.67064,-5.39088 7.38353,-8.80153 8.57415,-7.83414 0.79789,0.62425 -0.45475,3.57601 -2.26963,5.96139 -1.64538,2.15801 -3.97702,4.60127 -6.75927,2.84014 z m 25.6067,-15.10606 c -0.74001,-1.53375 -2.38538,-2.21588 -3.29489,-1.2485 -0.9095,0.96325 -1.19062,2.67064 -0.28525,4.20026 0.85162,1.48001 2.44326,1.64951 3.18326,0.85163 0.73588,-0.79375 1.13275,-2.32751 0.39688,-3.80339 z m -9.25628,26.91722 c 3.17913,0 6.75514,-2.38538 8.4584,-5.90765 0.68212,-1.418 0.85162,-2.60862 0.401,-3.51813 -0.22737,-0.45475 -0.62425,-0.51263 -0.9095,0 -1.70326,3.91914 -4.82865,7.66465 -7.38353,7.7804 -1.81488,0.11163 -1.93063,-2.10426 -0.56637,-5.39502 1.19062,-2.84013 3.57601,-6.70139 4.77077,-9.1984 1.36012,-2.84014 0.90537,-5.2834 0.0537,-6.1929 -0.45475,-0.5085 -0.85163,-0.339 -1.36012,0.34313 -2.10427,2.95176 -5.84978,9.65316 -7.27191,13.79967 -1.5875,4.65502 -0.5085,8.2889 3.80752,8.2889 z m 9.25628,-10.16579 c -0.0579,-0.45475 -0.0579,-0.90537 -0.11576,-1.36012 -0.0579,-0.9095 -0.50849,-1.13688 -1.19062,-0.57051 -1.93063,1.59164 -2.10013,5.33714 -0.74001,7.89616 1.93063,3.51813 5.10977,4.36976 8.40466,4.25814 4.03076,-0.1695 7.89202,-2.32751 10.05003,-6.24665 0.96738,-1.76113 1.02526,-3.23701 0.79788,-3.74964 -0.22737,-0.45475 -0.79788,-0.62425 -1.079,0 -1.42214,3.06751 -3.80752,6.47402 -7.6109,7.89616 2.04638,-1.36426 2.44326,-3.74964 2.55488,-5.96553 0.1695,-3.91914 -0.90951,-8.34677 -0.5085,-13.5723 0.22738,-0.39687 0.39688,-0.73587 0.62425,-1.079 0.73588,-1.30638 1.02113,-1.93063 0.45475,-2.497 -0.51262,-0.51263 -1.81901,-0.28526 -3.06751,0.85162 -1.19476,1.07901 -1.76113,2.15801 -2.04638,4.3739 -1.64538,2.89388 -4.20026,6.58564 -6.52777,9.76477 z m 6.41614,-6.13089 c 0.22738,4.54339 1.07901,13.45654 -1.53375,14.25443 -1.87276,0.56637 -3.52227,-1.76113 -4.37389,-5.05602 2.158,-3.06752 4.26227,-6.18877 5.90764,-9.19841 z m 19.65152,10.84378 c -0.45475,3.29489 1.02526,5.6224 4.71289,5.6224 3.35276,0 6.8709,-2.89388 8.52041,-6.07715 0.79375,-1.5875 0.73587,-3.12125 0.50849,-3.57601 -0.22737,-0.50849 -0.73587,-0.45475 -1.02112,0.0579 -2.21589,3.97288 -5.10977,7.72253 -7.49515,7.83415 -2.04639,0.11575 -2.26963,-2.26963 -0.79375,-5.50664 1.30638,-2.89388 4.14238,-7.15615 5.39502,-9.71104 1.36012,-2.84013 0.90537,-5.33714 0.0537,-6.35827 -0.45475,-0.5705 -0.85163,-0.45475 -1.418,0.339 -1.81901,2.44326 -3.46439,6.3624 -7.0404,12.1543 -3.06751,4.94027 -6.1929,8.91315 -8.40465,8.74365 -1.30638,-0.11162 -1.47588,-2.15801 -0.28526,-4.94027 1.19476,-2.72438 2.32751,-4.99814 4.42764,-8.34677 2.04639,-3.23701 2.33164,-5.7919 1.079,-7.66879 -0.45061,-0.50849 -1.02112,-0.56637 -1.47587,0.0579 -3.69177,5.16764 -6.58565,10.73216 -7.83415,14.4818 -1.2485,3.74551 -1.13688,7.94991 2.89388,8.23516 3.17913,0.22738 6.18877,-2.67064 8.17728,-5.34128 z m 7.49515,-22.25807 c -0.56638,1.13688 -0.22738,2.32751 0.68213,2.72438 0.85162,0.39688 2.04638,-0.45475 2.55488,-1.64537 0.51263,-1.13688 0.22738,-2.32751 -0.678,-2.72438 -0.85576,-0.40101 -1.98851,0.45061 -2.55901,1.64537 z m -6.18877,0 c -0.5085,1.19063 -0.22738,2.44326 0.68213,2.72438 0.85162,0.28526 2.10013,-0.45475 2.497,-1.5875 0.57051,-1.19475 0.22738,-2.27376 -0.62425,-2.67063 -0.90537,-0.39688 -2.04225,0.33899 -2.55488,1.53375 z m 27.94041,18.28519 c 3.12126,-6.92877 2.89388,-13.63017 -1.93063,-13.63017 -1.48001,0 -3.23701,0.9095 -4.88653,2.38538 1.76114,-3.12126 4.2044,-7.0404 5.05603,-8.63203 2.3275,-4.25814 2.3275,-6.81302 1.47588,-8.40466 -0.45476,-0.79375 -0.90951,-0.79375 -1.41801,-0.0537 -3.91914,5.44876 -15.04817,26.46247 -16.58193,31.17536 -1.13688,3.46439 -0.57051,5.10976 0.28112,6.24664 0.34313,0.45476 0.68213,0.39688 0.90951,-0.17363 0.51263,-1.19062 1.13688,-2.55488 1.64537,-3.74551 1.02526,2.49701 2.9559,4.03077 5.96553,4.03077 3.29076,0 6.81302,-3.23702 9.48366,-9.19841 z m -2.78226,-11.30267 c 1.30225,0.11576 1.98438,3.58015 -1.25264,9.99629 -3.29075,6.58564 -5.90351,8.2889 -7.89202,7.83828 -1.53376,-0.34313 -2.26963,-2.15801 -2.38538,-3.80752 2.10013,-4.36976 4.82864,-9.08678 7.38352,-11.75328 1.70326,-1.76114 2.95176,-2.38539 4.14652,-2.27377 z m 42.93381,14.87868 c 0.68213,-1.5875 0.56638,-3.06751 0.28525,-3.69176 -0.22737,-0.5085 -0.62838,-0.39688 -0.85162,0.0579 -1.81901,4.2044 -4.71702,7.94991 -7.09827,7.83828 -1.7074,-0.0579 -2.38539,-2.3275 -1.42214,-5.45289 0.96738,-3.06752 3.86126,-6.92878 6.5319,-9.88054 1.70326,-1.87275 0.28112,-4.60127 -0.85163,-5.84977 -0.39687,-0.56637 -0.9095,-0.28525 -1.59163,0.1695 -2.21589,1.48001 -4.20026,2.38538 -6.18877,2.67064 1.418,-3.69177 1.98851,-7.15615 0.22737,-7.09828 -2.38538,0.11163 -7.9499,7.66465 -3.58014,9.48366 -3.12125,7.2099 -9.3679,16.18506 -15.61455,15.89981 -2.89388,-0.11576 -4.31601,-3.80339 -2.497,-8.97103 3.97288,3.17913 7.7804,1.757 10.4469,-1.70326 2.27376,-2.89801 2.84014,-6.24664 1.87276,-7.6109 -0.90537,-1.2485 -1.93063,-2.04639 -3.34863,-2.89802 -2.84014,-1.64537 -8.63204,1.53376 -12.20804,8.57829 -3.69177,7.26777 -1.24851,14.30817 5.96139,14.19655 6.75927,-0.11575 12.89017,-7.27191 17.60306,-17.15244 1.76113,0 4.31601,-0.56637 6.81715,-2.15801 -2.44326,2.72852 -5.84977,6.92878 -7.04453,10.73216 -1.418,4.60127 0.28526,8.46254 4.60127,8.68991 3.12126,0.1695 6.5319,-2.44326 7.9499,-5.84977 z m -32.14274,-6.07715 c 0.17363,-0.28112 0.28526,-0.67799 0.45476,-0.96325 2.61276,-5.22552 7.26777,-8.80153 8.5204,-7.72252 0.73588,0.62425 -0.45475,3.57601 -2.27376,5.90351 -1.70325,2.15801 -3.91914,4.48965 -6.7014,2.78226 z m 0,0"
       style="fill:#ffffff;fill-opacity:1;fill-rule:nonzero;stroke:none;stroke-width:0.352778"
       aria-label="Reisübe" />
  </g>
</svg>
